<?xml version="1.0" encoding="utf-8"?>
<svg viewBox="0 0 512 512" xmlns="http://www.w3.org/2000/svg">
  <defs>
    <linearGradient gradientUnits="userSpaceOnUse" x1="256.015" y1="72" x2="256.015" y2="440.02" id="gradient-0" spreadMethod="pad" gradientTransform="matrix(0.642948, -0.76591, 1.312725, 1.101975, -244.362052, 178.615367)">
      <stop offset="0" style="stop-color: rgb(246, 89, 0);"/>
      <stop offset="1" style="stop-color: rgb(255, 2, 108);"/>
    </linearGradient>
    <linearGradient gradientUnits="userSpaceOnUse" x1="268.82" y1="110.35" x2="268.82" y2="120.55" id="gradient-1" spreadMethod="pad" gradientTransform="matrix(0.700465, -0.713688, 43.742693, 42.932245, -4977.018942, -4502.683782)">
      <stop offset="0" style="stop-color: rgb(246, 89, 0);"/>
      <stop offset="1" style="stop-color: rgb(255, 2, 108);"/>
    </linearGradient>
    <linearGradient gradientUnits="userSpaceOnUse" x1="326.8" y1="138.46" x2="326.8" y2="148.66" id="gradient-2" spreadMethod="pad" gradientTransform="matrix(0.695809, -0.718226, 44.677148, 43.282686, -6399.924577, -5708.503135)">
      <stop offset="0" style="stop-color: rgb(246, 89, 0);"/>
      <stop offset="1" style="stop-color: rgb(255, 2, 108);"/>
    </linearGradient>
    <linearGradient gradientUnits="userSpaceOnUse" x1="240.954" y1="138.46" x2="240.954" y2="148.66" id="gradient-3" spreadMethod="pad" gradientTransform="matrix(0.641745, -0.766918, 47.188416, 39.486593, -6663.6229, -5227.459361)">
      <stop offset="0" style="stop-color: rgb(246, 89, 0);"/>
      <stop offset="1" style="stop-color: rgb(255, 2, 108);"/>
    </linearGradient>
    <linearGradient gradientUnits="userSpaceOnUse" x1="311.775" y1="166.57" x2="311.775" y2="176.77" id="gradient-4" spreadMethod="pad" gradientTransform="matrix(0.707164, -0.707049, 44.034733, 44.041908, -7505.672364, -7082.486506)">
      <stop offset="0" style="stop-color: rgb(246, 89, 0);"/>
      <stop offset="1" style="stop-color: rgb(255, 2, 108);"/>
    </linearGradient>
    <linearGradient gradientUnits="userSpaceOnUse" x1="219.97" y1="166.57" x2="219.97" y2="176.77" id="gradient-5" spreadMethod="pad" gradientTransform="matrix(0.70023, -0.713917, 45.319563, 44.450716, -7678.327998, -7206.237794)">
      <stop offset="0" style="stop-color: rgb(246, 89, 0);"/>
      <stop offset="1" style="stop-color: rgb(255, 2, 108);"/>
    </linearGradient>
  </defs>
  <path d="M450.08,247.82A70.14,70.14,0,0,0,418.49,115c-.45,0-.89,0-1.33,0V96.71A24.76,24.76,0,0,0,392.42,72H29.23A24.76,24.76,0,0,0,4.49,96.71V334.65a24.76,24.76,0,0,0,24.74,24.73H158v70.44H115.79a5.1,5.1,0,0,0,0,10.2H348.3a32.47,32.47,0,0,0,32.44-32.44v-81.2a5.1,5.1,0,1,0-10.2,0v81.2a22.26,22.26,0,0,1-22.24,22.24H244.4a35.56,35.56,0,0,1,35.13-30.4h52.2a5.1,5.1,0,0,0,5.1-5.1V355.55a5.32,5.32,0,0,0,.16-1.27,5.24,5.24,0,0,0-.16-1.26V322.71a67.42,67.42,0,0,1,67.34-67.34H430a67.42,67.42,0,0,1,67.34,67.34V434.92a5.1,5.1,0,1,0,10.2,0V322.71A77.68,77.68,0,0,0,450.08,247.82Zm28.37-62.61a60,60,0,1,1-60-60A60,60,0,0,1,478.45,185.21ZM14.69,334.65V323.12H326.63v26.06H29.23A14.54,14.54,0,0,1,14.69,334.65Zm101.1-117.21a27.76,27.76,0,1,1,27.75-27.76A27.79,27.79,0,0,1,115.79,217.44Zm9.52,10.2c15.24,0,28.8,5.54,38.33,15.76l26.2,25.92a5,5,0,0,0,3.84,1.47,5.09,5.09,0,0,0,3.67-1.84l28.53-34.5a7,7,0,0,1,9.58-1.06,6.93,6.93,0,0,1,1.34,10l-38.42,47.57a7.29,7.29,0,0,1-10.72.69l-26.29-25.16a5.09,5.09,0,0,0-8.62,3.68v42.77H72.25V260.24a32.64,32.64,0,0,1,32.61-32.6Zm42.87,202.18V359.38h68.33v59a5.38,5.38,0,0,0,.09.9,45.19,45.19,0,0,0-2.47,10.55Zm111.35-40.6a45.57,45.57,0,0,0-32.82,13.95V359.38h79.92v29.84Zm47.72-76.3H163V282.1L180.6,299a17.37,17.37,0,0,0,13.21,4.81,17.54,17.54,0,0,0,12.5-6.46l38.43-47.57a17.09,17.09,0,0,0-2.08-23.65L267.22,172a5.1,5.1,0,1,0-9.28-4.21L233.38,221.9A17.14,17.14,0,0,0,218,228l-25,30.2L171,236.29A59.14,59.14,0,0,0,139.89,219a38,38,0,1,0-47.72.38,42.87,42.87,0,0,0-30.12,40.88v52.68H14.69V96.71A14.55,14.55,0,0,1,29.23,82.18H392.42A14.55,14.55,0,0,1,407,96.71V116a70.13,70.13,0,0,0-21,131.33A77.73,77.73,0,0,0,327.25,312.92Z" style="fill-rule: nonzero; fill: url(#gradient-0); paint-order: fill;"/>
  <path d="M336.64,110.35H201a5.1,5.1,0,0,0,0,10.2H336.64a5.1,5.1,0,1,0,0-10.2Z" style="fill-rule: nonzero; fill: url(#gradient-1); paint-order: fill;"/>
  <path d="M336.64,138.46H317a5.1,5.1,0,0,0,0,10.2h19.6a5.1,5.1,0,1,0,0-10.2Z" style="fill-rule: nonzero; fill: url(#gradient-2); paint-order: fill;"/>
  <path d="M286,143.56a5.1,5.1,0,0,0-5.1-5.1H201a5.1,5.1,0,0,0,0,10.2H280.9A5.1,5.1,0,0,0,286,143.56Z" style="fill-rule: nonzero; fill: url(#gradient-3); paint-order: fill;"/>
  <path d="M336.64,166.57H286.91a5.1,5.1,0,0,0,0,10.2h49.73a5.1,5.1,0,1,0,0-10.2Z" style="fill-rule: nonzero; fill: url(#gradient-4); paint-order: fill;"/>
  <path d="M238.93,166.57H201a5.1,5.1,0,1,0,0,10.2h37.94a5.1,5.1,0,0,0,0-10.2Z" style="fill-rule: nonzero; fill: url(#gradient-5); paint-order: fill;"/>
</svg>