<?xml version="1.0" encoding="utf-8"?>
<svg viewBox="17.888 1.146 38.658 71.199" xmlns="http://www.w3.org/2000/svg">
  <defs>
    <clipPath id="clip-0">
      <path d="M 18 0 L 46 0 L 46 28 L 18 28 Z M 18 0 " clip-rule="nonzero"/>
    </clipPath>
    <clipPath id="clip-1">
      <path d="M 15.125 9.117188 L 44.515625 0.0742188 L 51.351562 22.296875 L 21.960938 31.339844 Z M 15.125 9.117188 " clip-rule="nonzero"/>
    </clipPath>
    <clipPath id="clip-2">
      <path d="M 15.125 9.117188 L 44.515625 0.0742188 L 51.351562 22.296875 L 21.960938 31.339844 Z M 15.125 9.117188 " clip-rule="nonzero"/>
    </clipPath>
    <clipPath id="clip-3">
      <path d="M 15.125 9.117188 L 44.515625 0.0742188 L 51.351562 22.296875 L 21.960938 31.339844 Z M 15.125 9.117188 " clip-rule="nonzero"/>
    </clipPath>
    <linearGradient gradientUnits="userSpaceOnUse" x1="32.005" y1="0.496" x2="32.005" y2="27.627" id="gradient-0" gradientTransform="matrix(0.781061, -0.624454, 1.717477, 2.148201, -9.551532, 30.410926)">
      <stop offset="0" style="stop-color: rgb(246, 89, 0);"/>
      <stop offset="1" style="stop-color: rgb(255, 2, 108);"/>
    </linearGradient>
    <clipPath id="clip-8">
      <path d="M 27 24 L 58 24 L 58 72 L 27 72 Z M 27 24 " clip-rule="nonzero"/>
    </clipPath>
    <clipPath id="clip-9">
      <path d="M 20.363281 25.96875 L 48.121094 19.511719 L 59.515625 68.453125 L 31.753906 74.914062 Z M 20.363281 25.96875 " clip-rule="nonzero"/>
    </clipPath>
    <clipPath id="clip-10">
      <path d="M 20.363281 25.96875 L 48.121094 19.511719 L 59.515625 68.453125 L 31.753906 74.914062 Z M 20.363281 25.96875 " clip-rule="nonzero"/>
    </clipPath>
    <clipPath id="clip-11">
      <path d="M 20.363281 25.96875 L 48.121094 19.511719 L 59.515625 68.453125 L 31.753906 74.914062 Z M 20.363281 25.96875 " clip-rule="nonzero"/>
    </clipPath>
    <linearGradient gradientUnits="userSpaceOnUse" x1="42.604" y1="29.82" x2="42.604" y2="71.594" id="gradient-1" gradientTransform="matrix(0.780286, -0.625423, 1.111273, 1.386439, -49.868217, -2.15557)">
      <stop offset="0" style="stop-color: rgb(246, 89, 0);"/>
      <stop offset="1" style="stop-color: rgb(255, 2, 108);"/>
    </linearGradient>
  </defs>
  <g clip-path="url(#clip-0)" transform="matrix(1, 0, 0, 1, -0.4363, 0.8726)">
    <g clip-path="url(#clip-1)">
      <g clip-path="url(#clip-2)">
        <g clip-path="url(#clip-3)">
          <path d="M 19.511719 20.910156 C 19.527344 20.914062 19.539062 20.914062 19.550781 20.914062 L 28.007812 21.121094 L 33.089844 27.28125 C 33.359375 27.585938 33.777344 27.699219 34.15625 27.582031 C 34.199219 27.566406 34.238281 27.554688 34.277344 27.535156 C 34.492188 27.4375 34.65625 27.277344 34.761719 27.078125 C 34.785156 27.054688 34.808594 27.027344 34.828125 26.996094 L 37.953125 22.234375 L 43.695312 23.1875 C 43.71875 23.191406 43.738281 23.195312 43.761719 23.195312 C 43.964844 23.210938 44.167969 23.1875 44.359375 23.128906 C 44.609375 23.050781 44.839844 22.914062 45.03125 22.726562 C 45.363281 22.394531 45.539062 21.9375 45.511719 21.480469 L 44.855469 1.707031 C 44.839844 1.238281 44.566406 0.820312 44.144531 0.617188 C 43.722656 0.417969 43.226562 0.464844 42.855469 0.75 L 18.898438 18.953125 C 18.546875 19.242188 18.410156 19.707031 18.546875 20.136719 C 18.683594 20.570312 19.0625 20.875 19.511719 20.910156 Z M 29.222656 20.4375 L 41.859375 4.59375 L 33.398438 20.3125 C 33.261719 20.570312 33.195312 20.863281 33.210938 21.152344 L 33.453125 25.566406 Z M 34.773438 24.574219 L 34.617188 21.683594 L 36.46875 21.992188 Z M 44.140625 21.542969 C 44.148438 21.644531 44.09375 21.714844 44.0625 21.746094 C 44.035156 21.777344 43.972656 21.824219 43.875 21.824219 L 34.941406 20.34375 L 43.566406 4.316406 Z M 40.144531 4.535156 L 28.011719 19.746094 L 20.375 19.558594 Z M 40.144531 4.535156 " fill-opacity="1" fill-rule="nonzero" style="fill: url(#gradient-0);"/>
        </g>
      </g>
    </g>
  </g>
  <g clip-path="url(#clip-8)">
    <g clip-path="url(#clip-9)" transform="matrix(1, 0, 0, 1, -1.13438, 0.261783)">
      <g clip-path="url(#clip-10)">
        <g clip-path="url(#clip-11)">
          <path d="M 29.07 38.473 L 27.922 38.52 C 27.816 35.578 29.043 32.406 31.289 29.82 L 32.156 30.559 C 30.098 32.93 28.973 35.816 29.07 38.473 Z M 36.035 47.836 C 35.203 47.547 34.504 47.262 33.902 46.969 C 31.449 45.77 29.719 44.109 28.754 42.031 L 29.797 41.551 C 30.648 43.391 32.203 44.867 34.414 45.949 C 34.973 46.223 35.629 46.488 36.422 46.762 L 36.035 47.836 Z M 48.098 51.438 C 45.852 50.582 43.418 49.93 41.059 49.297 L 39.363 48.84 L 39.676 47.742 L 41.363 48.199 C 43.75 48.84 46.215 49.5 48.516 50.379 L 48.098 51.438 Z M 57.293 59.199 L 56.152 59.324 C 56.117 59.02 56.066 58.719 56 58.434 C 55.477 56.172 53.887 54.34 51.148 52.828 L 51.711 51.832 C 54.75 53.512 56.516 55.586 57.121 58.172 C 57.195 58.504 57.254 58.844 57.293 59.199 Z M 35.09 70.273 C 33.234 69.691 31.535 68.938 30.172 68.098 L 30.781 67.133 C 32.066 67.922 33.676 68.633 35.441 69.188 L 35.09 70.273 Z M 51.238 70.047 L 50.742 69.023 C 53.523 67.691 55.266 65.508 55.93 62.527 L 57.051 62.77 C 56.309 66.105 54.352 68.555 51.238 70.047 Z M 47.844 71.168 C 45.063 71.754 41.828 71.734 38.492 71.117 L 38.707 70 C 41.898 70.59 44.977 70.609 47.613 70.059 L 47.844 71.168" fill-opacity="1" fill-rule="nonzero" style="fill: url(#gradient-1);"/>
        </g>
      </g>
    </g>
  </g>
</svg>