<?xml version="1.0" encoding="utf-8"?>
<svg viewBox="30.25 407.213 1154.624 484.585" xmlns="http://www.w3.org/2000/svg">
  <defs>
    <linearGradient gradientUnits="userSpaceOnUse" x1="600" y1="413.778" x2="600" y2="1001" id="gradient-0" gradientTransform="matrix(0.439597, -0.899242, 2.047171, 0.978186, -1102.015304, 554.373538)">
      <stop offset="0" style="stop-color: rgba(246, 90, 0, 0.5)"/>
      <stop offset="1" style="stop-color: rgba(255, 2, 108, 0.5);"/>
    </linearGradient>
    <linearGradient gradientUnits="userSpaceOnUse" x1="595.114" y1="440.828" x2="595.114" y2="1028.05" id="gradient-1" gradientTransform="matrix(0.414767, -0.915986, 2.063005, 0.90876, -1172.864557, 623.78449)">
      <stop offset="0" style="stop-color: rgba(246, 89, 0, 0.8);"/>
      <stop offset="1" style="stop-color: rgba(255, 2, 107, 0.8);"/>
    </linearGradient>
    <linearGradient gradientUnits="userSpaceOnUse" x1="587.653" y1="442.269" x2="587.653" y2="1029.491" id="gradient-2" gradientTransform="matrix(0.374639, -0.915682, 2.108258, 0.908457, -1171.238915, 660.753746)">
      <stop offset="0" style="stop-color: rgb(246, 90, 0);"/>
      <stop offset="1" style="stop-color: rgb(255, 2, 107);"/>
    </linearGradient>
  </defs>
  <path d="M -1.301 451.131 L 27.578 438.992 C 56.457 426.674 114.216 402.395 172.39 419.89 C 230.464 437.385 289.058 497.01 347.093 507.006 C 405.23 517.182 462.914 477.908 521.027 483.264 C 579.038 488.619 637.582 538.605 695.636 551.994 C 753.788 565.384 811.553 542.176 869.518 518.61 C 927.384 495.225 985.551 471.303 1043.628 489.512 C 1101.806 507.72 1159.996 567.704 1189.09 597.874 L 1218.185 627.866 L 1220.092 1000.972 L 1191.15 1000.972 C 1162.209 1000.972 1104.327 1000.972 1046.241 1000.972 C 988.257 1000.972 929.968 1000.972 871.984 1000.972 C 813.897 1000.972 756.014 1000.972 697.929 1000.972 C 639.944 1000.972 581.657 1000.972 523.671 1000.972 C 465.586 1000.972 407.703 1000.972 349.617 1000.972 C 291.633 1000.972 233.344 1000.972 175.36 1000.972 C 117.274 1000.972 59.391 1000.972 30.451 1000.972 L 1.509 1000.972 Z" stroke-linecap="round" stroke-linejoin="miter" style="fill: url(#gradient-0);" transform="matrix(0.999997, -0.00233, 0.00233, 0.999997, -1.646511, 1.421812)"/>
  <path d="M -24.381 478.227 L 5.41 466.088 C 35.203 453.771 94.784 429.495 153.947 446.988 C 213.006 464.481 271.744 524.102 330.916 534.098 C 390.187 544.272 449.993 505.002 509.338 510.357 C 568.578 515.712 627.461 565.693 686.582 579.08 C 745.806 592.469 805.371 569.264 865.149 545.7 C 924.822 522.317 984.814 498.397 1043.861 516.604 C 1103.015 534.811 1161.33 594.789 1190.486 624.956 L 1219.646 654.945 L 1214.047 1028.017 L 1184.438 1028.017 C 1154.83 1028.017 1095.613 1028.017 1036.188 1028.017 C 976.867 1028.017 917.234 1028.017 857.913 1028.017 C 798.488 1028.017 739.271 1028.017 679.846 1028.017 C 620.524 1028.017 560.892 1028.017 501.571 1028.017 C 442.145 1028.017 382.929 1028.017 323.504 1028.017 C 264.183 1028.017 204.55 1028.017 145.229 1028.017 C 85.804 1028.017 26.587 1028.017 -3.022 1028.017 L -32.63 1028.017 Z" stroke-linecap="round" stroke-linejoin="miter" style="fill: url(#gradient-1);" transform="matrix(0.999887, -0.015003, 0.015003, 0.999887, -10.951932, 8.987019)"/>
  <path d="M -26.751 515.252 L 2.56 503.117 C 31.869 490.804 90.493 466.536 150.57 484.023 C 210.542 501.511 272.08 561.111 331.83 571.104 C 391.688 581.275 449.865 542.018 509.581 547.371 C 569.192 552.724 630.443 602.689 690.294 616.072 C 750.248 629.456 808.904 606.258 867.758 582.703 C 926.515 559.327 985.566 535.416 1045.559 553.617 C 1105.658 571.817 1166.789 631.775 1197.362 661.933 L 1227.928 691.911 L 1239.034 1064.86 L 1209.36 1064.86 C 1179.685 1064.86 1120.339 1064.86 1060.783 1064.86 C 1001.331 1064.86 941.568 1064.86 882.116 1064.86 C 822.56 1064.86 763.213 1064.86 703.658 1064.86 C 644.205 1064.86 584.442 1064.86 524.99 1064.86 C 465.434 1064.86 406.088 1064.86 346.532 1064.86 C 287.08 1064.86 227.317 1064.86 167.865 1064.86 C 108.309 1064.86 48.963 1064.86 19.287 1064.86 L -10.386 1064.86 Z" stroke-linecap="round" stroke-linejoin="miter" style="fill: url(#gradient-2);" transform="matrix(0.999557, 0.029764, -0.029764, 0.999557, 23.227696, -17.699312)"/>
</svg>