<?xml version="1.0" encoding="utf-8"?>
<svg viewBox="0 406.28 959.181 193.72" xmlns="http://www.w3.org/2000/svg">
  <defs>
    <linearGradient gradientUnits="userSpaceOnUse" x1="482.403" y1="423.871" x2="482.403" y2="613.365" id="gradient-0" gradientTransform="matrix(-0.709464, 4.418956, -6.354277, -0.800042, 4162.738281, -1175.815624)" spreadMethod="pad">
      <stop offset="0" style="stop-color: rgb(255, 2, 107);"/>
      <stop offset="1" style="stop-color: rgb(255, 94, 0);"/>
    </linearGradient>
  </defs>
  <path d="M 0 454.45 L 32 442.495 C 64 430.54 128 406.63 192 412.386 C 256 418.142 320 453.565 384 470.833 C 448 488.102 512 487.216 576 482.08 C 640 476.855 704 467.468 768 459.055 C 832 450.642 896 443.204 928 439.573 L 960 435.854 L 960 579.314 L 928 579.314 C 896 579.314 832 579.314 768 579.314 C 704 579.314 640 579.314 576 579.314 C 512 579.314 448 579.314 384 579.314 C 320 579.314 256 579.314 192 579.314 C 128 579.314 64 579.314 32 579.314 L 0 579.314 Z" style="paint-order: fill; fill-rule: nonzero; fill: url(#gradient-0);"/>
  <path d="M -2.502 560.521 L 29.581 559.183 C 61.665 557.955 125.831 555.278 189.998 557.174 C 254.165 559.071 318.332 565.319 382.499 555.166 C 446.666 544.902 510.832 518.125 574.999 510.093 C 639.166 502.171 703.333 512.882 767.5 518.349 C 831.666 523.704 895.833 523.704 927.917 523.704 L 960 523.704 L 960 611.843 L 927.917 611.843 C 895.833 611.843 831.666 611.843 767.5 611.843 C 703.333 611.843 639.166 611.843 574.999 611.843 C 510.832 611.843 446.666 611.843 382.499 611.843 C 318.332 611.843 254.165 611.843 189.998 611.843 C 125.831 611.843 61.665 611.843 29.581 611.843 L -2.502 611.843 Z" style="fill: rgb(255, 255, 255);"/>
</svg>