<?xml version="1.0" encoding="utf-8"?>
<svg viewBox="0 2.735 475.384 497.265" xmlns="http://www.w3.org/2000/svg">
  <g transform="matrix(0.644638, 0, 0, 0.644638, -16.665205, -2.336734)" style="">
    <path d="M89.4,755.5c0,11.2-6.9,16.9-20.5,16.9c-10.6,0-15.9-4.6-15.9-13.6c0-1.8,0.4-4.3,1.1-7.3c0.9-3.8,2.1-5.8,3.3-5.8 c1.5,0,2.2,0.9,2.2,2.6c0,0.5-0.1,1.4-0.3,2.5s-0.3,1.9-0.3,2.5c0,5,4.3,7.4,12.9,7.4c4.5,0,8.5-0.7,12.2-2c0.7-0.2,1-0.5,1-0.8 c0-0.4-0.5-0.6-1.4-0.7l-8.9-0.9c-3.6-0.7-5.5-2.3-5.5-5c0-2.8,1-6.2,3-9.9c2.5-4.7,5.6-7.1,9.1-7.1c2.2,0,4.2,1.1,5.8,3.3 c1.3,1.8,1.9,3.4,1.9,4.9c0,1.7-0.3,2.6-0.8,2.6c-0.2,0-1.2-0.3-2.9-0.8c-1.7-0.5-3.1-0.8-4.2-0.8c-1.8,0-3.3,0.5-4.7,1.4 c-1,0.7-1.5,1.4-1.5,2c0,0.4,1.2,0.8,3.6,1.1c3.7,0.5,5.9,0.8,6.3,0.9C88,749.7,89.4,751.8,89.4,755.5z" style="fill: #000; stroke: #000;"/>
    <path d="M113.3,756.6c0,6.7-1.7,11.8-5.3,15.5c-0.4,0.4-0.9,0.6-1.6,0.6H93.9c-1.5,0-2.2-0.6-2.2-1.8c0-0.7,0.3-1.1,0.9-1.4 c2.3-1.1,5.3-2.8,8.7-5.3c4.5-3,6.7-5.3,6.7-6.6c0-1-2-3.4-6-7.2l4.3-8.8c0.2-0.5,0.6-0.5,1-0.2c2.1,1.9,3.6,3.9,4.6,6 C112.9,749.8,113.3,752.7,113.3,756.6z M108.5,731.6c0.2,0.2,0.2,0.5,0,0.7l-3.6,3.6c-0.2,0.2-0.5,0.2-0.7,0l-3.6-3.5 c-0.3-0.3-0.2-0.6,0.1-0.9l3.3-3.3c0.3-0.3,0.6-0.3,0.9,0L108.5,731.6z" style="fill: #000; stroke: #000;"/>
    <path d="M127.5,744.8c0,1.5-0.2,3.5-0.7,6s-1,4.5-1.6,5.8c-0.7,1.5-1.4,2.3-2.1,2.3s-1.3-0.9-1.8-2.8c-0.7-2.7-2.2-11.9-4.7-27.8 l8.1-8.8c0.5-0.5,0.8-0.8,1-0.8c0.1,0,0.3,0.2,0.4,0.7c0.8,3.5,1.2,7.8,1.4,12.7C127.5,733.6,127.5,737.8,127.5,744.8z" style="fill: #000; stroke: #000;"/>
    <path d="M151.4,756.6c0,6.7-1.7,11.8-5.3,15.5c-0.4,0.4-0.9,0.6-1.6,0.6h-12.6c-1.5,0-2.2-0.6-2.2-1.8c0-0.7,0.3-1.1,0.9-1.4 c2.3-1.1,5.3-2.8,8.7-5.3c4.5-3,6.7-5.3,6.7-6.6c0-1-2-3.4-6-7.2l4.3-8.8c0.2-0.5,0.6-0.5,1-0.2c2.1,1.9,3.6,3.9,4.6,6 C151,749.8,151.4,752.7,151.4,756.6z" style="fill: #000; stroke: #000;"/>
    <path d="M188.9,758.8h-1.4c-0.7,0-1.4-0.2-1.9-0.6v2.3c0,1.9-0.5,4.2-1.6,6.6c-0.9,2.1-1.9,3.7-3.1,5c-0.4,0.4-0.9,0.6-1.6,0.6 h-12.6c-1.5,0-2.2-0.6-2.2-1.8c0-0.7,0.3-1.1,0.9-1.4c2.3-1.1,5.3-2.8,8.7-5.3c4.5-3,6.7-5.3,6.7-6.6c0-1-2-3.4-6-7.2l4.3-8.8 c0.3-0.5,0.6-0.6,1-0.2c1.7,1.7,2.8,2.9,3.5,3.4c1.5,1.2,2.9,1.7,4.5,1.7h0.9L188.9,758.8L188.9,758.8z" style="fill: #000; stroke: #000;"/>
    <path d="M200.6,744.7c0,5-0.7,8.4-2.1,10.4c-1.6,2.3-4.7,3.5-9.1,3.5h-2.1v-12.1h6.1c1,0,1.6-0.3,1.6-0.9c0-0.3-0.1-0.6-0.4-1 c-1.1-1.4-2.5-2.9-4.3-4.5c-0.3-0.2-0.3-0.6,0-1l5-7.2c0.3-0.4,0.5-0.6,0.6-0.6c0.2,0,0.4,0.2,0.7,0.5 C199.2,735.4,200.6,739.7,200.6,744.7z M201.8,724.1c0.2,0.2,0.2,0.4,0,0.7l-3.1,3.1c-0.2,0.2-0.4,0.2-0.7,0l-3-2.9l-2.9,2.9 c-0.2,0.2-0.5,0.2-0.7,0l-3.1-3.1c-0.3-0.2-0.2-0.5,0.1-0.8l2.9-2.9c0.3-0.3,0.6-0.3,0.8,0l2.9,2.8l2.8-2.8c0.3-0.3,0.5-0.3,0.8,0 L201.8,724.1z" style="fill: #000; stroke: #000;"/>
    <path d="M226.7,758.8h-2.8c-0.5,6-2,10.3-4.8,13.3c-0.4,0.4-0.9,0.6-1.6,0.6h-12.6c-1.5,0-2.2-0.6-2.2-1.8c0-0.7,0.3-1.1,0.9-1.4 c2.3-1.1,5.1-2.6,8.3-4.7c4.4-2.7,6.6-4.7,6.7-5.8c-3.6,0-6-0.2-7.1-0.6c-2.4-0.9-3.5-3.1-3.5-6.5c0-3.1,0.5-6,1.5-8.7 c1.4-3.7,3.5-5.7,6.3-5.7c3.8,0,6.5,3,7.6,9.1h3.1L226.7,758.8L226.7,758.8z M218.4,748.9c0-0.6-0.4-1.1-1.2-1.6s-1.4-0.7-2-0.7 c-1.6,0-2.4,0.6-2.4,1.8c0,0.7,1,1,3,1C217.5,749.4,218.4,749.3,218.4,748.9z" style="fill: #000; stroke: #000;"/>
    <path d="M242.2,758.8h-2c-2.5,0-4.6-1.2-6-3.5c-1.4,2.4-3.5,3.5-6.3,3.5h-2.6v-12.1h1.7c1.9,0,3.2-0.6,3.9-1.7 c0.2-0.3,0.5-1.3,1-3.1c0.3-1.1,0.9-1.7,1.8-1.7c0.8,0,1.4,0.6,1.6,1.7c0.4,1.7,0.7,2.8,0.9,3.1c0.7,1.1,1.9,1.7,3.7,1.7h2 L242.2,758.8L242.2,758.8z M240.5,766.6c0.2,0.2,0.2,0.4,0,0.7l-3.1,3.1c-0.2,0.2-0.5,0.2-0.7,0l-3-2.9l-2.9,2.9 c-0.2,0.2-0.5,0.2-0.7,0l-3.1-3.1c-0.3-0.2-0.2-0.5,0.1-0.8l2.9-2.9c0.3-0.2,0.5-0.2,0.8,0l3,2.8l2.8-2.8c0.3-0.3,0.5-0.3,0.8,0 L240.5,766.6z" style="fill: #000; stroke: #000;"/>
    <path d="M257.6,758.8h-2c-2.5,0-4.6-1.2-6-3.5c-1.4,2.4-3.5,3.5-6.3,3.5h-2.6v-12.1h1.7c1.9,0,3.2-0.6,3.9-1.7 c0.2-0.3,0.5-1.3,1-3.1c0.3-1.1,0.9-1.7,1.8-1.7c0.8,0,1.4,0.6,1.6,1.7c0.4,1.7,0.7,2.8,0.9,3.1c0.7,1.1,1.9,1.7,3.7,1.7h2 L257.6,758.8L257.6,758.8z M256.2,765.2c0.2,0.2,0.2,0.4,0,0.6l-3.1,3.1c-0.2,0.2-0.4,0.2-0.6,0l-3.1-3l-3.1,3 c-0.2,0.2-0.4,0.2-0.6,0l-3.1-3.1c-0.2-0.2-0.2-0.5,0.1-0.7l2.9-3c0.2-0.3,0.5-0.3,0.7,0l3.1,3l0,0l2.8-2.9c0.2-0.2,0.5-0.2,0.8,0 L256.2,765.2z M252.7,771.3c0.2,0.2,0.2,0.4,0,0.6l-3.1,3.1c-0.2,0.2-0.4,0.2-0.6,0l-3.2-3.1c-0.2-0.2-0.2-0.5,0.1-0.7l2.8-2.9 c0.2-0.2,0.5-0.2,0.8,0L252.7,771.3z" style="fill: #000; stroke: #000;"/>
    <path d="M277.7,750.4c0,2.3-0.7,4.4-2.2,6c-1.5,1.7-3.4,2.6-5.8,2.6c-2.9,0-5.3-1.4-7.1-4.3c-1.2,2.7-2.8,4-5,4h-1.7v-12.1h0.9 c2.2,0,3.4-0.7,3.5-2.1c0.1-1.8,0.6-3.5,1.6-5c1.4-2.1,3.5-3.2,6.4-3.2c3.3,0,5.9,1.8,7.6,5.4C277.1,744.3,277.7,747.2,277.7,750.4 z M273.6,748.2c0-1.1-0.3-2.3-0.9-3.6c-0.7-1.6-1.6-2.3-2.6-2.3c-0.5,0-1,0.2-1.3,0.6c-0.3,0.4-0.5,0.9-0.5,1.4 c0,1.3,0.3,2.6,0.9,3.9c0.7,1.6,1.7,2.4,3,2.4C273.1,750.6,273.6,749.8,273.6,748.2z" style="fill: #000; stroke: #000;"/>
    <path d="M294.9,758.7H292c-6.7,0-10-3.5-10-10.4c0-2.9-0.1-6.9-0.3-11.7c-0.2-5.1-0.5-8.5-0.7-10.1c-0.1-0.8,0-1.4,0.4-1.7l7.8-5.5 c0.5-0.4,0.9-0.5,1.1-0.5s0.3,0.2,0.3,0.6v23.4c0,2.6,1.1,3.8,3.4,3.8h0.8L294.9,758.7L294.9,758.7z" style="fill: #000; stroke: #000;"/>
    <path d="M318.3,720.1l-0.9,8.8c0,0.4-0.1,0.6-0.1,0.6c-0.1,0.1-0.2,0.2-0.5,0.3l-11,3.4c1.8,2.1,3,3.9,3.8,5.6 c1,2.1,1.5,4.6,1.5,7.3c0,5.4-1.9,9-5.7,11.1c-2,1.1-4.4,1.6-7.2,1.6h-4.9v-12.1h2.5c3.6,0,6.2-0.2,7.4-0.5 c0.5-0.1,0.8-0.4,0.8-0.9c0-0.3-0.1-0.5-0.3-0.8c-0.9-1.3-2.3-2.8-4-4.5c-0.9-0.8-2.4-2.2-4.8-4.3l1.5-8.6c0.1-0.4,0.2-0.6,0.5-0.7 l20.7-6.9c0.2,0,0.3-0.1,0.3-0.1C318.3,719.4,318.3,719.6,318.3,720.1z" style="fill: #000; stroke: #000;"/>
    <path d="M372.5,758.8h-1.6c-0.5,0-1.2-0.4-1.9-1.3c-0.9-1.1-1.9-1.9-2.9-2.4c-1.7-0.8-4-1.3-7-1.3c-1.7,0-3.1,0.2-4.3,0.6 c-0.6,0.2-1,0.5-1,0.7c0,0.4,1,0.6,3,0.6c3.2,0,5.5,0.2,6.7,0.5c2.4,0.7,3.6,2.3,3.6,4.8c0,7.6-6.2,11.4-18.6,11.4 c-7.1,0-11.8-1.7-14.4-5.1c-1.4-1.9-2.2-4.7-2.2-8.2c0-2.4,0.5-5,1.5-7.6c1-2.8,2.1-4.3,3.2-4.3c1.4,0,2.1,0.8,2.1,2.3 c0,0.5-0.1,1.3-0.2,2.4c-0.2,1-0.2,1.8-0.2,2.4c0,5.1,4.4,7.6,13.2,7.6c4.7,0,8.2-0.3,10.7-0.8c0.9-0.2,1.4-0.4,1.4-0.7 s-0.5-0.5-1.4-0.5c-1.6-0.1-3.2-0.2-5-0.2c-2.6,0-4.5-0.2-5.5-0.5c-1.7-0.6-2.6-1.7-2.6-3.4c0-3.6,2.6-6.3,7.9-7.8 c3.3-1,7.4-1.5,12.1-1.5h3.3L372.5,758.8L372.5,758.8z" style="fill: #000; stroke: #000;"/>
    <path d="M399.7,744.6c0,3.1-0.5,6.1-1.4,8.6c-1.3,3.6-3.2,5.5-5.8,5.5c-2.1,0-3.9-1.1-5.3-3.4c-1,2.3-2.4,3.4-4.4,3.4 c-2.5,0-4.4-1.2-5.2-3.6c-1.1,2.4-2.6,3.6-4.8,3.6h-2.1v-11.9h2c1.2,0,2.1-0.5,2.6-1.5c0.3-0.9,0.5-1.7,0.8-2.6 c0.5-1.1,1-1.7,1.7-1.7c0.8,0,1.4,0.5,1.6,1.5l0.8,2.8c0.5,1,1.4,1.5,2.8,1.5c1,0,1.7-0.5,2.1-1.5c0.1-0.5,0.3-1.4,0.6-2.8 c0.2-1,0.8-1.5,1.7-1.5c0.8,0,1.3,0.5,1.6,1.6l0.7,2.9c0.5,1,1.4,1.6,2.8,1.6c1.6,0,2.5-0.6,2.5-1.8c0-0.7-0.1-1.4-0.5-2.2 c-0.2-0.4-0.4-1-0.8-1.9l3.4-3.7c0.4-0.4,0.6-0.4,0.8,0.1C399.3,739.9,399.7,742.2,399.7,744.6z" style="fill: #000; stroke: #000;"/>
    <path d="M432.1,758.8h-2.3c-3.4,0-6.2-2.2-8.3-6.7c-1.5,2.7-2.9,4.6-4.3,5.7c-1.5,1.2-3.5,1.9-6,1.9c-5.5,0-8.2-3.2-8.2-9.6 c0-1.3,0.2-2.8,0.6-4.4c0.5-2.1,1.3-3.2,2.2-3.2c1,0,1.6,0.5,1.9,1.5c0.5,1.6,0.8,2.5,1,2.7c0.7,1,2,1.5,3.9,1.5 c1.2,0,2.5-0.2,3.7-0.5c1.5-0.5,2.3-1,2.3-1.6c0-0.1,0-0.2-0.1-0.3l-4.5-10.6l6-6c0.3-0.3,0.5-0.4,0.6-0.4s0.3,0.2,0.4,0.6 l5.1,13.9c0.9,2.4,2.1,3.6,3.9,3.6h2L432.1,758.8L432.1,758.8L432.1,758.8z" style="fill: #000; stroke: #000;"/>
    <path d="M447.5,758.8h-2c-2.5,0-4.6-1.2-6-3.5c-1.4,2.4-3.5,3.5-6.3,3.5h-2.6v-12.1h1.7c1.9,0,3.2-0.6,3.9-1.7 c0.2-0.3,0.5-1.3,1-3.1c0.3-1.1,0.9-1.7,1.8-1.7c0.8,0,1.4,0.6,1.6,1.7c0.4,1.7,0.7,2.8,0.9,3.1c0.7,1.1,1.9,1.7,3.7,1.7h2 L447.5,758.8L447.5,758.8z M442.6,729.3c0.2,0.2,0.2,0.5,0,0.7l-3.5,3.5c-0.3,0.3-0.5,0.2-0.8,0l-3.6-3.5c-0.3-0.3-0.2-0.6,0.1-0.9 l3.3-3.4c0.3-0.3,0.6-0.3,0.9,0L442.6,729.3z" style="fill: #000; stroke: #000;"/>
    <path d="M467.9,758.8h-4.4c0.9,1.9,1.4,3.4,1.4,4.5c0,1.6-0.5,2.9-1.4,3.9s-2.2,1.4-3.8,1.4c-2.8,0-5.3-1.2-7.3-3.7 c-1.6-2-2.6-4-3-6.1h-3.6v-12.1h3.9c0.3-2.1,1.4-4.4,3.4-6.8c2.3-2.6,4.8-3.9,7.3-3.9c1.3,0,2.5,0.5,3.4,1.4s1.4,2.1,1.4,3.4 c0,1.9-0.6,3.9-2,5.9h4.6L467.9,758.8L467.9,758.8z M460.1,760.8c0-0.6-0.2-1.1-0.7-1.6s-1-0.7-1.5-0.7h-4.5 c1.4,2.5,2.9,3.8,4.5,3.8C459.3,762.3,460.1,761.8,460.1,760.8z M460.3,744.6c0-1-0.7-1.6-2.2-1.6s-3,1.3-4.5,3.8h4.5 c0.6,0,1.1-0.2,1.6-0.7S460.3,745.2,460.3,744.6z" style="fill: #000; stroke: #000;"/>
    <path d="M488.1,750.4c0,2.3-0.7,4.4-2.2,6c-1.5,1.7-3.4,2.6-5.8,2.6c-2.9,0-5.3-1.4-7.1-4.3c-1.2,2.7-2.8,4-5,4h-1.7v-12.1h0.9 c2.2,0,3.4-0.7,3.5-2.1c0.1-1.8,0.6-3.5,1.6-5c1.4-2.1,3.5-3.2,6.4-3.2c3.3,0,5.9,1.8,7.6,5.4C487.5,744.3,488.1,747.2,488.1,750.4 z M483.9,748.2c0-1.1-0.3-2.3-0.9-3.6c-0.7-1.6-1.6-2.3-2.6-2.3c-0.5,0-1,0.2-1.3,0.6c-0.3,0.4-0.5,0.9-0.5,1.4 c0,1.3,0.3,2.6,0.9,3.9c0.7,1.6,1.7,2.4,3,2.4C483.4,750.6,483.9,749.8,483.9,748.2z" style="fill: #000; stroke: #000;"/>
    <path d="M542.5,758.8h-1.6c-0.5,0-1.2-0.4-1.9-1.3c-0.9-1.1-1.9-1.9-2.8-2.4c-1.7-0.8-4-1.3-7-1.3c-1.7,0-3.1,0.2-4.3,0.6 c-0.7,0.2-1,0.5-1,0.7c0,0.4,1,0.6,3,0.6c3.2,0,5.5,0.2,6.7,0.5c2.4,0.7,3.6,2.3,3.6,4.8c0,7.6-6.2,11.4-18.5,11.4 c-7.1,0-11.8-1.7-14.4-5.1c-1.4-1.9-2.2-4.7-2.2-8.2c0-2.4,0.5-5,1.5-7.6c1-2.8,2.1-4.3,3.2-4.3c1.4,0,2.1,0.8,2.1,2.3 c0,0.5-0.1,1.3-0.2,2.4c-0.2,1-0.2,1.8-0.2,2.4c0,5.1,4.4,7.6,13.2,7.6c4.7,0,8.2-0.3,10.7-0.8c0.9-0.2,1.4-0.4,1.4-0.7 s-0.5-0.5-1.4-0.5c-1.6-0.1-3.2-0.2-5-0.2c-2.6,0-4.5-0.2-5.5-0.5c-1.7-0.6-2.6-1.7-2.6-3.4c0-3.6,2.6-6.3,7.9-7.8 c3.3-1,7.4-1.5,12.1-1.5h3.3L542.5,758.8L542.5,758.8z" style="fill: #000; stroke: #000;"/>
    <path d="M567,758.8h-1.6c-0.9,0-1.8-0.5-2.8-1.4c-0.9-0.8-1.5-1.8-1.8-2.7c-1.3,2.8-3.3,4.4-6.2,4.4s-5.3-1.4-7.1-4.3 c-1.2,2.7-2.8,4-4.9,4h-1.7v-12.1h0.9c2.2,0,3.4-0.7,3.5-2.1c0.1-1.8,0.6-3.5,1.6-5c1.4-2.1,3.5-3.2,6.4-3.2c2.3,0,4.3,0.9,5.7,2.6 c0.3,0.4,1.3,2,2.8,5c0.9,1.8,2,2.6,3.1,2.6h2.1V758.8L567,758.8z M558.4,748.2c0-1.1-0.3-2.3-0.9-3.6c-0.7-1.6-1.6-2.3-2.6-2.3 c-0.5,0-1,0.2-1.3,0.6c-0.3,0.4-0.5,0.9-0.5,1.4c0,1.3,0.3,2.6,0.9,3.9c0.7,1.6,1.7,2.4,3,2.4C557.9,750.6,558.4,749.8,558.4,748.2 z" style="fill: #000; stroke: #000;"/>
    <path d="M581.7,758.8h-1.5c-1.3,0-2.6-0.5-3.8-1.4c-1-0.8-1.8-1.6-2.3-2.5c-1.8,2.6-4,4-6.7,4h-1.9v-12.1h1.5c2,0,3-1.4,2.8-4.2 l-0.8-17.9c0-0.3,0.1-0.6,0.3-0.7l8.1-5.3c0.3-0.2,0.4-0.2,0.5-0.2c0,0,0,0.2,0,0.6v24.2c0,0.8,0.2,1.6,0.6,2.2 c0.5,0.7,1.1,1.1,1.9,1.1h1.2L581.7,758.8L581.7,758.8z" style="fill: #000; stroke: #000;"/>
    <path d="M604.5,745.5l-1.3,5.1c-0.8,3.3-1.4,5.1-1.7,5.2c-0.9,0.1-2.3,0.2-4.4,0.2s-3.5,0-4.4-0.2c-1,0.8-2.6,1.6-5.1,2.2 c-2.1,0.6-3.9,0.8-5.4,0.8h-1.9v-12.1h1.9c1,0,1.7-0.2,2.1-0.6c-1.2-1.2-1.8-2.2-1.8-3.1c0-3.1,1.2-6,3.5-8.6c2.4-2.6,5.2-4,8.3-4 c2.2,0,4.2,0.8,5.9,2.4c1.5,1.4,2.5,3,3.1,5c0.1,0.4,0.2,0.8,0.2,1.2c0,1-0.3,1.6-0.9,1.6c-0.7,0-1.8-0.2-3.4-0.5 c-1.6-0.3-2.7-0.5-3.5-0.5c-1.6,0-3.2,0.2-4.8,0.7c-1.9,0.6-2.8,1.3-2.8,2.3s1,1.7,3,2.1c1.2,0.3,2.6,0.4,4.2,0.4 c2.3,0,5.2-0.3,8.3-0.8c0.7-0.1,1.1,0,1.1,0.3C604.7,744.6,604.7,744.9,604.5,745.5z" style="fill: #000; stroke: #000;"/>
    <path d="M653.6,758.8h-1.5c-0.9,0-1.7-0.4-2.2-1.2c0,9.8-5.4,14.7-16.2,14.7c-4.5,0-7.9-0.8-10.4-2.5c-3-2-4.6-5.2-4.6-9.3 c0-2,0.4-4.5,1.2-7.3c1-3.2,2.1-4.9,3.3-4.9c0.7,0,1.2,0.3,1.4,1c0.1,0.3,0.2,1,0.2,1.9c0,0.5-0.1,1.2-0.3,2.1 c-0.2,0.9-0.3,1.7-0.3,2.2c0,3.5,3.5,5.3,10.6,5.3c2.1,0,4-0.2,6-0.7c2.8-0.7,4.2-1.8,4.2-3.3c0-1.3-1.8-3.3-5.4-6.3l4.2-8.1 c0.2-0.3,0.3-0.5,0.4-0.5c0.1,0,0.3,0.2,0.6,0.5c2.8,2.9,5,4.4,6.5,4.4h2.2L653.6,758.8L653.6,758.8z M636.8,738.3 c0.2,0.2,0.2,0.5,0,0.7l-3.5,3.6c-0.2,0.2-0.5,0.2-0.8,0l-3.6-3.5c-0.3-0.3-0.2-0.6,0.1-0.9l3.3-3.4c0.3-0.3,0.6-0.3,0.9,0 L636.8,738.3z" style="fill: #000; stroke: #000;"/>
    <path d="M678.1,758.8h-1.6c-0.9,0-1.8-0.5-2.8-1.4c-0.9-0.8-1.5-1.8-1.8-2.7c-1.3,2.8-3.3,4.4-6.2,4.4s-5.3-1.4-7.1-4.3 c-1.2,2.7-2.8,4-4.9,4H652v-12.1h0.9c2.2,0,3.4-0.7,3.5-2.1c0.1-1.8,0.6-3.5,1.6-5c1.4-2.1,3.5-3.2,6.4-3.2c2.3,0,4.3,0.9,5.7,2.6 c0.3,0.4,1.3,2,2.8,5c0.9,1.8,2,2.6,3.1,2.6h2.1V758.8L678.1,758.8z M669.4,748.2c0-1.1-0.3-2.3-0.9-3.6c-0.7-1.6-1.6-2.3-2.6-2.3 c-0.5,0-1,0.2-1.3,0.6c-0.3,0.4-0.5,0.9-0.5,1.4c0,1.3,0.3,2.6,0.9,3.9c0.7,1.6,1.7,2.4,3,2.4C669,750.6,669.4,749.8,669.4,748.2z" style="fill: #000; stroke: #000;"/>
    <path d="M711.2,758.8h-5.3c-4.9,0-7.9-2.7-9.4-8.3c-2,2.6-4.6,4.7-7.8,6.2c-3,1.4-6.3,2.1-9.7,2.1h-2.6v-12.1h4.7 c5.2,0,9.7-0.9,13.6-2.8c-4.6-1.4-7.5-2.1-8.8-2.1c-1,0-2,0.5-3.1,1.4s-1.8,1.4-2.3,1.4c-1,0-1.5-0.7-1.5-2.2c0-1.6,0.7-3.6,2-6.1 c1.7-3.1,3.9-4.7,6.4-4.7c1.6,0,4.5,0.7,8.4,2s7.1,2,9.2,2h3c0.6,0,1,0.1,1,0.4c0,0.2-0.1,0.5-0.2,0.9l-2.6,8.2h-4.8 c0.8,0.9,2.5,1.3,5.1,1.3h5L711.2,758.8L711.2,758.8z M698.5,767c0.2,0.2,0.2,0.5,0,0.7l-3.6,3.5c-0.2,0.2-0.5,0.2-0.8,0l-3.6-3.5 c-0.3-0.3-0.3-0.6,0.1-0.9l3.3-3.3c0.3-0.3,0.6-0.3,0.9,0L698.5,767z" style="fill: #000; stroke: #000;"/>
    <path d="M722.9,744.7c0,5-0.7,8.4-2.1,10.4c-1.6,2.3-4.7,3.5-9.1,3.5h-2.1v-12.1h6.1c1,0,1.6-0.3,1.6-0.9c0-0.3-0.2-0.6-0.5-1 c-1.1-1.4-2.5-2.9-4.3-4.5c-0.3-0.2-0.3-0.6,0-1l5-7.2c0.3-0.4,0.5-0.6,0.6-0.6c0.2,0,0.4,0.2,0.7,0.5 C721.5,735.4,722.9,739.7,722.9,744.7z M719.9,723c0.3,0.2,0.3,0.5,0,0.8l-3.6,3.5c-0.2,0.2-0.5,0.2-0.8,0l-3.6-3.5 c-0.3-0.3-0.3-0.6,0.1-1l3.3-3.3c0.3-0.3,0.6-0.3,0.9,0L719.9,723z" style="fill: #000; stroke: #000;"/>
    <path d="M737.2,744.8c0,1.5-0.2,3.5-0.7,6s-1,4.5-1.6,5.8c-0.7,1.5-1.4,2.3-2.1,2.3c-0.7,0-1.3-0.9-1.8-2.8 c-0.7-2.7-2.2-11.9-4.7-27.8l8.1-8.8c0.5-0.5,0.8-0.8,1-0.8c0.1,0,0.3,0.2,0.4,0.7c0.8,3.5,1.2,7.8,1.4,12.7 C737.2,733.6,737.2,737.8,737.2,744.8z" style="fill: #000; stroke: #000;"/>
  </g>
  <rect x="281.932" y="206.59" class="st0" width="0.258" height="7.607" style="stroke-miterlimit: 10; stroke-width: 0.9977px; fill: #000; stroke: #000;"/>
  <line class="st1" x1="317.451" y1="208.202" x2="267.75" y2="208.202" style="stroke-miterlimit: 10; stroke-width: 20.2458px; fill: #000; stroke: #000;"/>
  <path class="st2" d="M 253.76 45.495 C 253.245 55.036 253.826 66.123 253.696 78.501 L 331.827 78.501 L 331.827 228.508 L 355.098 228.508 L 355.098 302.125 L 290.248 301.997 C 236.356 359.821 274.132 393.728 275.936 393.664 C 275.936 393.794 266.976 405.268 260.787 418.613 C 354.776 408.362 424.397 328.942 424.397 232.247 C 424.397 134.52 349.425 54.069 253.76 45.495 Z" style="stroke-miterlimit: 10; stroke-width: 1.0123px; fill: #000; stroke: #000;"/>
  <path class="st2" d="M 51.022 232.312 C 51.022 329.008 120.644 408.426 214.631 418.676 C 208.442 405.332 199.483 393.858 199.483 393.728 C 201.288 393.728 239.064 359.886 185.171 302.061 L 120.321 302.191 L 120.321 228.508 L 143.592 228.508 L 143.592 78.501 L 221.723 78.501 C 221.594 66.123 222.173 55.036 221.658 45.495 C 126.059 54.069 51.022 134.52 51.022 232.312 Z" style="stroke-miterlimit: 10; stroke-width: 1.0123px; fill: #000; stroke: #000;"/>
  <g transform="matrix(0.644638, 0, 0, 0.644638, -16.665205, -2.336734)" style="">
    <path d="M438.1,614.5c0,0.4-37.9,61.4-37.6,95.8v4.6h-5v-93.5c1.5-0.4,2.5-1.8,2.5-3.4c0-2-1.6-3.5-3.5-3.5c-1,0-1.8,0.4-2.5,1 s-1,1.5-1,2.5c0,1.6,1,3,2.5,3.4v93.5h-5v-4.6c0.3-34.3-37.6-95.4-37.6-95.8c0-0.6,28.5-29.7,16.8-63.3h53.4 C409.6,584.9,438.1,613.9,438.1,614.5z" style="fill: #000; stroke: #000;"/>
    <path d="M398.9,369.6c-0.9,0.7-1.9,1.2-2.9,1.4c-1.1,0.2-2.4,0.4-4.2,0.4h-3.3v-17.6c1.1-0.1,2.5-0.1,4.4-0.1c2.2,0,3.9,0.3,5.3,1 c1.3,0.6,2.2,1.6,2.9,2.8c0.6,1.2,0.9,2.8,0.9,4.7c0,1.8-0.3,3.3-0.8,4.6C400.5,367.8,399.8,368.9,398.9,369.6z" style="fill: #000; stroke: #000;"/>
    <path d="M413.3,13.9H376c0,0,15.2,305.8-47.8,456.8c0,0.4,33.1,24.6,39.5,77.9h53.9c6.4-53.3,39.5-77.5,39.5-77.9 C393.8,309.8,413.1,14.3,413.3,13.9z M405.8,522.5c-0.6,1.4-1.5,2.6-2.7,3.5c-1.1,0.9-2.5,1.5-4.2,1.9s-3.3,0.6-5.3,0.6 c-3.1,0-6.7-0.5-10.7-1.5v-8.1h2.9c0.4,1.7,0.9,3.1,1.6,4.2c0.7,1.1,1.5,1.7,2.6,2.2s2.4,0.7,4.2,0.7c2.3,0,4-0.6,5.4-1.8 c1.2-1.2,1.8-2.9,1.8-5.3c0-1.5-0.3-2.7-0.8-3.7s-1.3-1.9-2.5-2.8c-1.2-0.9-2.9-1.9-5.4-3.1c-2.3-1.1-4.2-2.2-5.5-3.3 s-2.3-2.3-3-3.5c-0.7-1.3-1-2.7-1-4.3c0-2.2,0.5-4.2,1.5-5.8s2.5-2.9,4.6-3.7c2-0.9,4.4-1.3,6.9-1.3c1.5,0,2.9,0.1,4.5,0.2 c1.4,0.2,3.2,0.5,5.4,1v8h-3c-0.4-1.7-1-3.1-1.7-4c-0.7-1-1.5-1.6-2.4-2s-2.1-0.6-3.6-0.6c-1.3,0-2.4,0.2-3.4,0.7s-1.8,1.2-2.4,2.1 c-0.6,1-0.9,2.1-0.9,3.4c0,1.4,0.2,2.6,0.8,3.5c0.5,1,1.3,1.8,2.3,2.7c1.1,0.8,2.6,1.7,4.8,2.8c2.5,1.2,4.5,2.4,5.9,3.5 s2.5,2.3,3.2,3.7c0.8,1.4,1.2,3,1.2,4.9C406.7,519.3,406.4,521.1,405.8,522.5z M408.2,482.5h-27.4v-1.4c1.2-0.3,2-0.7,2.4-1 c0.4-0.4,0.7-0.9,0.8-1.6c0.1-0.7,0.2-1.8,0.2-3.2v-25.6c0-1.3-0.1-2.3-0.1-3c-0.1-0.6-0.3-1.1-0.5-1.4s-0.5-0.6-0.9-0.8 s-1-0.4-1.9-0.7v-1.6h27.7v8.9h-2.9c-0.3-1-0.6-1.8-0.9-2.5s-0.6-1.3-1-1.8c-0.3-0.5-0.7-0.9-1.1-1.2c-0.4-0.3-0.9-0.5-1.4-0.6 s-1.2-0.2-2-0.2h-9.4v15.6h6.4c0.9,0,1.5-0.1,2-0.4c0.5-0.2,0.9-0.7,1.2-1.2c0.3-0.6,0.6-1.5,0.9-2.8h2.8v11.3h-2.8 c-0.3-1.2-0.6-2.1-0.9-2.6c-0.3-0.6-0.7-1-1.2-1.3c-0.5-0.2-1.2-0.4-2.1-0.4h-6.4v17.1h9.2c1,0,1.7-0.1,2.3-0.2 c0.6-0.2,1.1-0.5,1.5-0.9s0.8-0.9,1.1-1.6c0.3-0.6,0.6-1.3,0.8-2c0.2-0.7,0.5-1.7,0.9-3h2.9L408.2,482.5z M388.2,426.6 c0.7,2.7,1.8,4.8,3.3,6.2c1.4,1.4,3.2,2.1,5.4,2.1c1.6,0,2.9-0.2,3.9-0.7s1.9-1.2,2.6-2.2s1.3-2.5,2-4.5h2.9v8.5 c-1.8,0.5-3.7,0.8-5.7,1.1c-1.9,0.2-4,0.4-6.4,0.4c-5.1,0-8.8-1.7-11.3-5.1s-3.8-8.5-3.8-15.2c0-4.3,0.7-7.9,2-11.1 s3.3-5.7,5.9-7.4c2.6-1.7,5.7-2.6,9.3-2.6c1.8,0,3.4,0.1,5,0.3s3.2,0.5,5.3,1v8.2h-2.9c-0.5-1.7-1.1-3-1.8-4.2 c-0.7-1-1.6-1.7-2.5-2.2s-2.1-0.6-3.5-0.6c-2,0-3.8,0.7-5.5,2c-1.6,1.3-2.8,3.3-3.7,6.1s-1.4,6-1.4,9.8 C387.1,420.5,387.5,423.8,388.2,426.6z M413.5,391.4h-8.2c-0.7-1-1.4-2.2-2.1-3.3c-0.7-1.2-1.3-2.4-2-3.6l-2.6-5 c-0.8-1.5-1.4-2.6-1.9-3.3c-0.5-0.7-1-1.2-1.4-1.5s-0.9-0.5-1.3-0.6c-0.5-0.1-1.2-0.2-2.2-0.2h-3.2V384c0,1.4,0.1,2.4,0.2,3.1 c0.1,0.6,0.3,1.1,0.5,1.4s0.5,0.6,0.9,0.8s1,0.4,1.9,0.7v1.4h-12.6V390c1.2-0.3,2-0.7,2.4-1c0.4-0.4,0.7-0.9,0.8-1.6 s0.2-1.8,0.2-3.2v-25.6c0-1.3-0.1-2.3-0.2-3c-0.1-0.6-0.3-1.1-0.5-1.4s-0.5-0.6-0.9-0.8s-1-0.4-1.9-0.7v-1.6h14.7 c4.7,0,8.1,0.8,10.3,2.5c2.3,1.7,3.4,4.3,3.4,7.8c0,2.7-0.7,5.1-2.2,6.9c-1.5,1.9-3.7,3.3-6.7,4.5v0.2c1.2,0.5,2.2,1.2,3.1,2.1 c0.8,0.9,1.8,2.3,2.8,4.3l2.6,4.9c0.8,1.4,1.4,2.5,2,3.2c0.5,0.7,1.1,1.3,1.7,1.7c0.6,0.4,1.3,0.7,2.3,0.8L413.5,391.4L413.5,391.4 z" style="fill: #000; stroke: #000;"/>
  </g>
  <rect x="193.229" y="206.59" class="st0" width="0.258" height="7.607" style="stroke-miterlimit: 10; stroke-width: 0.9977px; fill: #000; stroke: #000;"/>
  <polyline class="st3" points="304.365 96.422 312.552 96.422 312.552 206.59 304.365 206.59" style="stroke-miterlimit: 10; stroke-width: 25.3072px; fill: #000; stroke: #000;"/>
  <path d="M 282.189 201.691 L 282.189 206.526 L 281.932 206.526 L 281.932 237.405 L 345.365 237.469 L 345.365 292.971 L 285.349 292.971 C 278.902 274.02 273.616 255.454 269.361 237.469 C 267.491 229.668 265.815 221.869 264.269 214.261 C 264.204 213.939 264.14 213.617 264.076 213.294 C 263.624 211.038 262.914 207.622 262.528 205.43 L 261.883 201.756 L 282.189 201.691 L 282.189 201.691 Z" style="fill: #000; stroke: #000;"/>
  <line class="st1" x1="312.552" y1="94.81" x2="252.214" y2="94.81" style="stroke-miterlimit: 10; stroke-width: 20.2458px; fill: #000; stroke: #000;"/>
  <polyline class="st3" points="171.054 206.59 162.867 206.59 162.867 96.422 171.054 96.422" style="stroke-miterlimit: 10; stroke-width: 25.3072px; fill: #000; stroke: #000;"/>
  <path d="M 193.229 201.691 L 193.229 206.526 L 193.487 206.526 L 193.487 237.405 L 130.055 237.469 L 130.055 292.971 L 190.071 292.971 C 196.516 274.02 201.803 255.454 206.058 237.469 C 207.927 229.668 209.604 221.869 211.15 214.261 C 211.214 213.939 211.28 213.617 211.344 213.294 C 211.795 211.038 212.504 207.622 212.891 205.43 L 213.536 201.756 L 193.229 201.691 L 193.229 201.691 Z" style="fill: #000; stroke: #000;"/>
  <line class="st1" x1="223.206" y1="94.81" x2="162.867" y2="94.81" style="stroke-miterlimit: 10; stroke-width: 20.2458px; fill: #000; stroke: #000;"/>
  <line class="st1" x1="207.67" y1="208.202" x2="158.032" y2="208.202" style="stroke-miterlimit: 10; stroke-width: 20.2458px; fill: #000; stroke: #000;"/>
  <g transform="matrix(0.644638, 0, 0, 0.644638, -16.665205, -2.336734)" style="">
    <path d="M339,663.6l9.1,1.4l-5.6,34.5c3.8-2.6,8.2-4.3,13-5l-1.3,8.3c-2.5,0.4-5.3,1.4-8.5,3.2c-3.1,1.7-5.5,3.9-7,6.7l-7.4-1.2 L339,663.6z" style="fill: #000; stroke: #000;"/>
    <path d="M298.1,703.6c-4.5-1.3-7.6-3.9-9.1-7.9c-1.8-4.7-1.5-11.4,0.9-20.2s6-14.7,10.1-17.7c3.4-2.4,7.4-3,11.8-1.6 c4.6,1.3,7.7,4,9.4,8.4c1.7,4.3,1.3,10.9-1.2,19.7c-2.5,8.7-5.9,14.6-10,17.6C306.6,704.3,302.6,704.8,298.1,703.6z M300.3,696.2 c1,0.3,2.2,0.2,3.2-0.2s2.1-1.4,3-3.1c1.2-2.1,2.7-6,4.3-11.3c1.6-5.3,2.4-9.2,2.4-11.4s-0.2-3.7-0.9-4.7c-0.6-0.9-1.4-1.5-2.6-1.8 c-1-0.3-2.2-0.2-3.2,0.2s-2.1,1.4-3,3.1c-1.2,2.1-2.7,6-4.3,11.3s-2.4,9.2-2.4,11.4s0.2,3.7,0.9,4.7 C298.3,695.3,299.1,695.9,300.3,696.2z" style="fill: #000; stroke: #000;"/>
    <path d="M270.1,641.8l8.5,3.6l-13.7,32.2c4.4-1.5,8.9-2.2,13.8-1.7l-3.3,7.8c-2.5-0.2-5.5,0.1-9,1c-3.4,0.9-6.3,2.5-8.4,4.9l-7-2.9 L270.1,641.8z" style="fill: #000; stroke: #000;"/>
    <path d="M221,671.1c-4-2.3-6.5-5.6-7.1-9.8c-0.7-5,1.1-11.4,5.6-19.4c4.6-7.9,9.1-12.9,14-14.8c3.9-1.5,7.9-1.2,11.9,1.1 s6.5,5.9,7.2,10.4s-1.2,10.9-5.9,18.9c-4.5,7.9-9.1,12.8-13.9,14.8C229.1,673.7,225.1,673.4,221,671.1z M224.9,664.3 c0.9,0.5,2,0.7,3.1,0.5s2.4-0.9,3.6-2.3c1.7-1.7,4-5.1,6.9-10.1c2.8-4.9,4.5-8.4,5.1-10.6c0.5-2.1,0.6-3.7,0.2-4.8 c-0.4-1.1-1.1-1.8-2.1-2.4s-2-0.7-3.1-0.5s-2.4,0.9-3.6,2.3c-1.7,1.7-3.9,5.1-6.8,10c-2.8,4.9-4.5,8.4-5.1,10.6 c-0.5,2.1-0.6,3.7-0.2,4.8C223.2,663,223.9,663.8,224.9,664.3z" style="fill: #000; stroke: #000;"/>
    <path d="M208.3,604.3l7.5,5.5l-20.8,28c4.6-0.5,9.2,0,13.9,1.4l-5,6.8c-2.4-0.8-5.4-1.1-9-1s-6.7,1-9.2,2.7l-6.1-4.5L208.3,604.3z" style="fill: #000; stroke: #000;"/>
    <path d="M153.7,621.3c-3.4-3.2-4.9-7-4.6-11.2c0.4-5,3.7-10.9,10.1-17.6c6.3-6.7,11.9-10.4,16.9-11.1c4.1-0.6,8,0.7,11.3,3.9 c3.4,3.2,5,7.2,4.6,11.7c-0.4,4.6-3.7,10.3-10.1,17c-6.3,6.7-11.8,10.3-16.9,11C160.8,625.8,157,624.6,153.7,621.3z M159,615.7 c0.8,0.7,1.7,1.2,2.9,1.2c1.1,0.1,2.5-0.4,4.1-1.3c2.1-1.3,5.1-4,9-8.1c3.8-4.1,6.4-7.2,7.4-9.1c1-2,1.4-3.4,1.3-4.6 c-0.1-1.2-0.6-2.1-1.4-2.8c-0.8-0.7-1.7-1.1-2.9-1.2c-1.1-0.1-2.5,0.4-4.1,1.3c-2.1,1.2-5.1,3.9-8.9,8.1c-3.8,4.1-6.4,7.2-7.4,9.1 c-1,2-1.4,3.4-1.3,4.6C157.7,614.1,158.2,615,159,615.7z" style="fill: #000; stroke: #000;"/>
    <path d="M156.9,553.4l6,7.2L136.1,583c4.6,0.6,8.9,2.2,13.1,4.7l-6.5,5.4c-2.2-1.3-5-2.4-8.5-3.2c-3.5-0.7-6.8-0.6-9.7,0.5 l-4.8-5.9L156.9,553.4z" style="fill: #000; stroke: #000;"/>
    <path d="M100,557c-2.6-3.9-3.1-7.9-1.7-11.9c1.5-4.8,6.3-9.7,14-14.7s14.1-7.3,19.1-6.8c4.1,0.4,7.6,2.6,10.1,6.5 c2.6,3.9,3.1,8.1,1.6,12.4c-1.4,4.3-6.2,9.1-14,14.2c-7.6,5-14.1,7.2-19.1,6.8C105.8,563.2,102.5,560.9,100,557z M106.3,552.8 c0.6,0.9,1.4,1.5,2.5,2c1,0.3,2.5,0.2,4.4-0.4c2.4-0.7,6-2.7,10.7-5.9c4.8-3.1,7.9-5.4,9.3-7.1c1.4-1.6,2.3-3,2.4-4.1 c0.1-1.1-0.1-2.2-0.7-3.1c-0.6-0.9-1.4-1.5-2.5-2c-1-0.3-2.5-0.2-4.4,0.4c-2.4,0.7-6,2.7-10.6,5.7c-4.8,3.1-7.9,5.4-9.3,7.1 s-2.3,3-2.4,4.1C105.5,550.9,105.8,551.9,106.3,552.8z" style="fill: #000; stroke: #000;"/>
    <path d="M119.3,491.9l4,8.3l-31.4,15.4c4.4,1.6,8.2,4.1,11.5,7.7l-7.6,3.7c-1.7-1.8-4.3-3.5-7.5-5.1s-6.5-2.2-9.5-1.8l-3.3-6.8 L119.3,491.9z" style="fill: #000; stroke: #000;"/>
    <path d="M63,482c-1.5-4.5-1.1-8.4,1-12c2.7-4.3,8.3-7.9,17-11c8.6-3,15.4-3.7,20.1-2.1c3.9,1.3,6.8,4.3,8.3,8.7 c1.5,4.5,1.1,8.6-1.3,12.5c-2.5,3.9-8.1,7.4-16.8,10.5c-8.6,3-15.3,3.7-20.1,2.1C67.3,489.3,64.6,486.3,63,482z M70.3,479.4 c0.4,1,1,1.8,2,2.5s2.4,0.8,4.3,0.6c2.5-0.2,6.4-1.2,11.7-3.1s8.9-3.4,10.7-4.7c1.7-1.2,2.9-2.4,3.3-3.4s0.4-2.1,0-3.1 s-1-1.8-2-2.5c-0.9-0.6-2.4-0.8-4.3-0.6c-2.5,0.2-6.4,1.2-11.7,3.1c-5.3,1.8-8.9,3.4-10.7,4.7c-1.7,1.2-2.9,2.4-3.3,3.4 C69.9,477.3,69.9,478.3,70.3,479.4z" style="fill: #000; stroke: #000;"/>
    <path d="M97.1,423.2l2,9L65,439.8c3.8,2.6,7,6.1,9.4,10.2l-8.2,1.8c-1.3-2.2-3.3-4.5-6.2-6.8c-2.8-2.3-5.7-3.6-8.8-4l-1.6-7.4 L97.1,423.2z" style="fill: #000; stroke: #000;"/>
    <path d="M44.7,400.2c-0.5-4.7,0.8-8.5,3.8-11.4c3.6-3.5,10-5.7,19.1-6.7s15.8,0,20,2.7c3.5,2.3,5.5,5.7,6.1,10.4 c0.5,4.7-0.9,8.6-4.3,11.8c-3.3,3.2-9.5,5.3-18.8,6.3c-9,0.9-15.7,0-20-2.7C47.3,408.4,45.1,405,44.7,400.2z M52.3,399.5 c0.1,1.1,0.5,2.1,1.3,2.9s2.2,1.3,4,1.6c2.5,0.4,6.5,0.3,12.1-0.3c5.7-0.6,9.4-1.2,11.5-2.1c2.1-0.8,3.4-1.6,3.9-2.6 c0.6-0.9,0.8-2,0.7-3.1c-0.1-1.1-0.5-2.1-1.3-2.9s-2.2-1.3-4-1.6c-2.4-0.4-6.5-0.3-12,0.3c-5.6,0.6-9.4,1.2-11.5,2.1 c-2.1,0.8-3.4,1.6-4,2.6C52.5,397.4,52.2,398.4,52.3,399.5z" style="fill: #000; stroke: #000;"/>
    <path d="M91.6,351.2l-0.2,9.2l-34.9-0.6c3.1,3.4,5.4,7.5,6.9,12l-8.4-0.1c-0.7-2.4-2.2-5.1-4.4-8s-4.7-4.9-7.6-6.1l0.1-7.5 L91.6,351.2z" style="fill: #000; stroke: #000;"/>
    <path d="M46.2,316.5c0.6-4.7,2.8-8,6.5-10.2c4.4-2.6,11.1-3.2,20.1-2s15.4,3.7,18.9,7.4c2.9,3,4,6.9,3.4,11.5 c-0.6,4.7-2.9,8.2-7,10.5c-4,2.3-10.6,2.9-19.7,1.6c-9-1.2-15.3-3.7-18.8-7.4C46.7,325,45.5,321.2,46.2,316.5z M53.8,317.5 c-0.1,1.1,0.1,2.2,0.6,3.1c0.6,0.9,1.7,1.8,3.5,2.6c2.3,0.9,6.3,1.8,11.8,2.6c5.6,0.8,9.5,1,11.7,0.7s3.6-0.8,4.5-1.5 s1.3-1.6,1.4-2.8s-0.1-2.2-0.6-3.1c-0.6-0.9-1.7-1.8-3.5-2.6c-2.3-0.9-6.3-1.8-11.8-2.6c-5.5-0.7-9.5-1-11.7-0.7s-3.6,0.8-4.5,1.5 C54.4,315.4,54,316.4,53.8,317.5z" style="fill: #000; stroke: #000;"/>
    <path d="M103.4,279.9l-2.4,8.9l-33.8-8.9c2.2,4,3.4,8.5,3.7,13.4l-8.1-2.2c-0.1-2.5-0.9-5.5-2.4-8.7c-1.4-3.3-3.4-5.9-6.1-7.6 l1.8-7.3L103.4,279.9z" style="fill: #000; stroke: #000;"/>
    <path d="M67.5,235.5c1.7-4.4,4.7-7.2,8.7-8.3c4.9-1.4,11.5-0.5,20,2.9c8.5,3.3,14.1,7.3,16.6,11.6c2.1,3.6,2.3,7.7,0.5,11.9 c-1.7,4.4-4.8,7.3-9.2,8.6c-4.4,1.3-10.9,0.3-19.5-3.1c-8.4-3.3-14-7.3-16.5-11.6C66,243.9,65.8,239.8,67.5,235.5z M74.6,238.3 c-0.4,1-0.4,2.1-0.1,3.2c0.3,1,1.2,2.2,2.8,3.3c2,1.4,5.6,3.2,10.9,5.3c5.2,2.2,9,3.2,11.2,3.5c2.2,0.2,3.7,0.1,4.8-0.4 c0.9-0.5,1.6-1.3,2.1-2.4c0.4-1,0.4-2.1,0.1-3.2c-0.3-1-1.2-2.2-2.8-3.3c-2-1.4-5.6-3.2-10.9-5.3c-5.3-2.1-9-3.2-11.2-3.5 c-2.2-0.2-3.7-0.1-4.8,0.4C75.7,236.5,75,237.2,74.6,238.3z" style="fill: #000; stroke: #000;"/>
    <path d="M131.7,213.6l-4.5,8.1l-30.7-16.8c1.1,4.5,1.2,9.1,0.4,14l-7.4-4c0.5-2.5,0.4-5.5-0.1-9s-1.8-6.6-3.9-8.8l3.6-6.6 L131.7,213.6z" style="fill: #000; stroke: #000;"/>
    <path d="M107.1,161.9c2.7-3.8,6.2-5.9,10.4-6.2c5.1-0.3,11.3,2.2,18.8,7.5s11.9,10.3,13.4,15.3c1.1,4,0.4,8-2.3,11.8s-6.4,6-11,6.3 s-10.7-2.3-18.3-7.6c-7.5-5.2-11.8-10.3-13.3-15.2C103.7,169.7,104.4,165.8,107.1,161.9z M113.4,166.3c-0.6,0.9-0.9,2-0.8,3.1 s0.7,2.4,2,3.8c1.5,1.8,4.7,4.5,9.3,7.8c4.7,3.2,8,5.3,10.1,6.1c2.1,0.7,3.6,0.9,4.7,0.6c1-0.3,2-0.9,2.6-1.8 c0.6-0.9,0.9-2,0.8-3.1c-0.1-1.1-0.7-2.4-2-3.8c-1.5-1.8-4.7-4.5-9.3-7.7c-4.7-3.2-8-5.3-10.1-6.1c-2.1-0.7-3.6-0.9-4.7-0.7 C115,164.7,114,165.2,113.4,166.3z" style="fill: #000; stroke: #000;"/>
    <path d="M174.8,155.5l-6.3,6.9l-26-23.4c0.1,4.7-0.8,9.1-2.8,13.7l-6.3-5.6c1-2.3,1.6-5.3,1.8-8.8c0.2-3.6-0.3-6.8-1.8-9.5l5-5.6 L174.8,155.5z" style="fill: #000; stroke: #000;"/>
    <path d="M163.1,99.5c3.5-3.1,7.4-4.3,11.5-3.4c5,0.9,10.5,4.8,16.5,11.7c6.1,6.9,9.1,12.9,9.4,18c0.2,4.1-1.4,7.9-5,10.9 c-3.5,3.1-7.6,4.3-12.1,3.4c-4.6-0.8-9.9-4.8-16-11.7c-6.1-6.9-9.1-12.8-9.3-17.9C158,106.2,159.6,102.6,163.1,99.5z M168.1,105.3 c-0.8,0.7-1.3,1.6-1.5,2.8c-0.2,1.1,0.1,2.5,1,4.3c1.1,2.2,3.5,5.5,7.3,9.8c3.7,4.3,6.6,7.1,8.3,8.2c1.8,1.2,3.3,1.7,4.4,1.7 c1.1,0,2.1-0.4,2.9-1.1c0.8-0.7,1.3-1.6,1.5-2.8c0.2-1.2-0.1-2.5-1-4.3c-1-2.2-3.5-5.4-7.3-9.7c-3.7-4.3-6.6-7.1-8.3-8.2 c-1.8-1.2-3.3-1.7-4.5-1.7C170,104.2,169.1,104.6,168.1,105.3z" style="fill: #000; stroke: #000;"/>
    <path d="M230.2,109.4l-7.7,5.2l-19.7-28.8c-1,4.6-3,8.7-6,12.5l-4.8-7c1.5-2,2.9-4.8,3.9-8.2c1.1-3.4,1.2-6.7,0.4-9.7l6.3-4.3 L230.2,109.4z" style="fill: #000; stroke: #000;"/>
    <path d="M232.2,52.2c4.1-2.2,8.2-2.4,12-0.6c4.6,2.1,9,7.2,13.3,15.3c4.3,8.1,5.9,14.7,4.9,19.6c-0.8,4.1-3.2,7.3-7.4,9.4 c-4.1,2.2-8.4,2.3-12.5,0.4c-4.3-1.8-8.5-7-12.8-15.2c-4.1-8.1-5.9-14.7-4.9-19.6C225.6,57.5,228.1,54.4,232.2,52.2z M235.8,59.1 c-1,0.5-1.7,1.2-2.2,2.3c-0.4,1-0.4,2.5,0,4.4c0.5,2.4,2.1,6.2,4.8,11.2c2.6,5,4.7,8.3,6.2,10c1.4,1.6,2.8,2.5,3.8,2.8 s2.2,0.1,3.1-0.4c1-0.5,1.7-1.2,2.2-2.3c0.4-1,0.4-2.5,0-4.4c-0.5-2.4-2.1-6.2-4.7-11.1c-2.7-4.9-4.7-8.3-6.2-10 c-1.4-1.6-2.8-2.5-3.8-2.8C237.8,58.4,236.8,58.6,235.8,59.1z" style="fill: #000; stroke: #000;"/>
    <path d="M295.2,77.7l-8.6,3.3l-12.3-32.7c-2.1,4.1-5,7.8-8.7,10.8l-3-7.9c2-1.5,3.9-3.9,5.9-7c1.8-3.1,2.8-6.2,2.7-9.2l7.1-2.7 L295.2,77.7z" style="fill: #000; stroke: #000;"/>
    <path d="M310.5,22.6c4.6-1.1,8.5-0.4,11.8,2.2c4,3.1,7.1,9,9.3,18c2.2,8.8,2.3,15.6,0.1,20.2c-1.7,3.8-4.9,6.4-9.4,7.5 c-4.6,1.1-8.7,0.3-12.3-2.5c-3.6-2.8-6.7-8.7-8.8-17.8c-2.2-8.8-2.2-15.6-0.1-20.2C302.8,26.1,305.9,23.8,310.5,22.6z M312.3,29.9 c-1,0.3-2,0.8-2.7,1.7c-0.7,0.9-1,2.3-1,4.3c0,2.5,0.6,6.5,2,11.9c1.3,5.5,2.6,9.2,3.6,11.1c1,1.8,2.1,3.1,3.1,3.6s2.1,0.6,3.1,0.3 c1-0.3,2-0.8,2.7-1.7c0.7-0.9,1-2.3,1-4.3c0-2.5-0.6-6.5-2-11.9c-1.3-5.5-2.6-9.2-3.6-11.1c-1-1.8-2.1-3.1-3.1-3.6 C314.3,29.7,313.4,29.7,312.3,29.9z" style="fill: #000; stroke: #000;"/>
    <path d="M365.7,62.1l-9.1,1.1l-4.4-34.6c-3,3.5-6.7,6.4-11,8.4l-1-8.3c2.3-1,4.7-2.9,7.3-5.4c2.6-2.5,4.1-5.3,4.8-8.4l7.5-0.9 L365.7,62.1z" style="fill: #000; stroke: #000;"/>
  </g>
  <g transform="matrix(0.644638, 0, 0, 0.644638, -16.665205, -2.336734)" style="">
    <path d="M446.4,64.8l-9.1-1.3l5-34.6c-3.8,2.7-8.1,4.4-12.9,5.2l1.2-8.3c2.5-0.4,5.3-1.5,8.4-3.3s5.4-4,6.9-6.9l7.5,1L446.4,64.8z" style="fill: #000; stroke: #000;"/>
    <path d="M486.4,24.1c4.6,1.2,7.6,3.7,9.3,7.7c2,4.7,1.8,11.4-0.5,20.2s-5.6,14.8-9.7,17.8c-3.4,2.5-7.4,3.1-11.8,2 c-4.6-1.2-7.7-3.9-9.5-8.2c-1.8-4.3-1.5-10.8,0.8-19.8c2.4-8.8,5.6-14.8,9.7-17.8C477.9,23.5,481.9,22.8,486.4,24.1z M484.3,31.5 c-1-0.3-2.2-0.2-3.2,0.2c-1,0.4-2,1.5-3,3.2c-1.2,2.2-2.6,6-4,11.4s-2.2,9.3-2.2,11.5s0.3,3.7,1,4.7c0.6,0.9,1.5,1.4,2.6,1.7 c1,0.3,2.2,0.2,3.2-0.2c1-0.4,2-1.5,3-3.2c1.2-2.1,2.6-6,4-11.4c1.4-5.5,2.2-9.3,2.2-11.5s-0.3-3.7-0.9-4.7 C486.4,32.3,485.5,31.8,484.3,31.5z" style="fill: #000; stroke: #000;"/>
    <path d="M515.7,85.4l-8.6-3.4l13-32.4c-4.4,1.6-8.9,2.4-13.8,2.1l3.1-7.8c2.5,0.2,5.5-0.2,9-1.2c3.4-1,6.3-2.7,8.3-5l7,2.8 L515.7,85.4z" style="fill: #000; stroke: #000;"/>
    <path d="M564.1,55.1c4.1,2.3,6.6,5.5,7.3,9.7c0.8,5-0.9,11.5-5.3,19.5s-8.9,13.1-13.7,15.1c-3.8,1.6-7.9,1.3-11.9-0.9 c-4.1-2.3-6.6-5.6-7.4-10.2c-0.8-4.5,1-10.9,5.5-19c4.4-8,8.8-13,13.7-15C556,52.5,560,52.8,564.1,55.1z M560.4,61.9 c-0.9-0.5-2.1-0.7-3.1-0.5c-1.1,0.2-2.3,1-3.6,2.4c-1.6,1.7-3.9,5.2-6.7,10.2c-2.7,5-4.4,8.5-4.9,10.7s-0.5,3.7-0.1,4.8 c0.4,1.1,1.1,1.8,2.1,2.4c0.9,0.5,2.1,0.7,3.1,0.5c1.1-0.2,2.3-1,3.6-2.4c1.6-1.7,3.9-5.2,6.7-10.2c2.8-4.9,4.4-8.5,4.9-10.7 s0.5-3.7,0.1-4.8S561.3,62.4,560.4,61.9z" style="fill: #000; stroke: #000;"/>
    <path d="M578.1,121.5l-7.6-5.4l20.2-28.4c-4.6,0.6-9.2,0.2-13.9-1.2l4.9-6.9c2.4,0.7,5.4,1,9,0.9s6.7-1.1,9.2-2.9l6.2,4.4 L578.1,121.5z" style="fill: #000; stroke: #000;"/>
    <path d="M632.4,103.5c3.4,3.1,5.1,6.9,4.8,11.1c-0.3,5.1-3.5,10.9-9.8,17.8c-6.2,6.8-11.7,10.6-16.7,11.4c-4.1,0.7-8-0.5-11.4-3.7 c-3.5-3.1-5.1-7.1-4.8-11.6c0.3-4.6,3.5-10.4,9.8-17.2c6.2-6.8,11.6-10.5,16.7-11.3C625.1,99.1,628.9,100.4,632.4,103.5z M627.3,109.2c-0.8-0.7-1.7-1.1-2.9-1.2c-1.1-0.1-2.5,0.4-4,1.4c-2.1,1.3-5,4.1-8.8,8.3s-6.3,7.3-7.2,9.2c-1,2-1.4,3.5-1.2,4.6 s0.6,2.1,1.4,2.8c0.8,0.7,1.7,1.1,2.9,1.2s2.5-0.4,4-1.4c2.1-1.3,5-4,8.8-8.3c3.8-4.1,6.3-7.3,7.2-9.2c1-2,1.4-3.5,1.2-4.6 S628.1,110,627.3,109.2z" style="fill: #000; stroke: #000;"/>
    <path d="M630.3,171.4l-6.1-7l26.5-22.8c-4.6-0.5-9-2-13.2-4.5l6.4-5.5c2.2,1.3,5,2.3,8.5,3s6.8,0.5,9.7-0.6l4.9,5.7L630.3,171.4z" style="fill: #000; stroke: #000;"/>
    <path d="M687.3,166.8c2.6,3.8,3.3,7.9,2,11.9c-1.5,4.8-6.1,9.8-13.7,15c-7.6,5.1-14,7.5-19,7.2c-4.1-0.3-7.6-2.4-10.2-6.4 c-2.6-3.9-3.2-8.1-1.8-12.4c1.3-4.4,6-9.2,13.7-14.5c7.6-5.1,13.9-7.5,18.9-7.1C681.3,160.8,684.7,162.9,687.3,166.8z M680.9,171.1 c-0.6-0.9-1.4-1.5-2.6-1.8c-1-0.3-2.5-0.2-4.4,0.4c-2.4,0.8-5.9,2.8-10.6,6.1c-4.7,3.2-7.8,5.6-9.2,7.3c-1.4,1.6-2.2,3-2.3,4.1 s0.2,2.2,0.8,3c0.6,0.9,1.4,1.5,2.6,1.8c1,0.3,2.5,0.2,4.4-0.4c2.3-0.8,5.9-2.8,10.5-6c4.7-3.2,7.8-5.6,9.2-7.3 c1.4-1.6,2.2-3,2.3-4.1C681.9,172.9,681.7,172,680.9,171.1z" style="fill: #000; stroke: #000;"/>
    <path d="M669.2,232.2l-4.3-8.2l31.1-16c-4.4-1.5-8.3-4-11.7-7.5l7.5-3.8c1.7,1.7,4.4,3.4,7.6,5c3.2,1.6,6.5,2.1,9.5,1.6l3.4,6.7 L669.2,232.2z" style="fill: #000; stroke: #000;"/>
    <path d="M725.7,241.1c1.6,4.4,1.3,8.4-0.8,12c-2.6,4.4-8.2,8.1-16.8,11.3c-8.5,3.2-15.3,4-20.1,2.4c-4-1.3-6.9-4.1-8.4-8.5 c-1.6-4.4-1.2-8.6,1.1-12.5c2.4-3.9,7.9-7.6,16.6-10.8c8.5-3.2,15.2-3.9,20-2.4C721.2,234,724.2,236.8,725.7,241.1z M718.5,243.9 c-0.4-1-1-1.8-2.1-2.4c-0.9-0.6-2.4-0.7-4.4-0.6c-2.5,0.2-6.4,1.3-11.6,3.3c-5.3,2-8.8,3.6-10.7,4.9c-1.7,1.2-2.9,2.5-3.2,3.5 s-0.3,2.1,0.1,3.1c0.4,1,1,1.8,2.1,2.4c0.9,0.6,2.4,0.7,4.4,0.6c2.5-0.2,6.4-1.3,11.6-3.3c5.3-2,8.8-3.6,10.7-4.9 c1.7-1.2,2.9-2.5,3.2-3.5C718.9,245.9,718.9,244.9,718.5,243.9z" style="fill: #000; stroke: #000;"/>
    <path d="M692.8,300.4l-2.2-9l34-8.3c-3.8-2.5-7.1-5.9-9.7-10l8.2-2c1.3,2.2,3.4,4.4,6.3,6.6c2.8,2.2,5.9,3.5,8.9,3.8l1.7,7.3 L692.8,300.4z" style="fill: #000; stroke: #000;"/>
    <path d="M745.5,322.4c0.5,4.7-0.6,8.5-3.6,11.5c-3.5,3.6-9.9,6-19,7.1c-9,1.1-15.8,0.3-20.1-2.4c-3.6-2.2-5.7-5.6-6.3-10.3 c-0.5-4.7,0.7-8.6,4-11.9c3.2-3.3,9.4-5.5,18.7-6.7c9-1.1,15.7-0.3,20,2.4C743,314.3,745,317.7,745.5,322.4z M737.9,323.3 c-0.1-1.1-0.6-2.1-1.4-2.8c-0.8-0.8-2.2-1.3-4-1.5c-2.5-0.3-6.6-0.2-12.1,0.5s-9.4,1.4-11.5,2.3c-2.1,0.8-3.3,1.6-3.9,2.7 c-0.6,1-0.8,2-0.7,3.1s0.6,2.1,1.4,2.8c0.8,0.8,2.2,1.3,4,1.5c2.4,0.3,6.5,0.2,12-0.5c5.6-0.7,9.4-1.4,11.5-2.3 c2.1-0.8,3.3-1.6,3.9-2.7C737.7,325.4,738,324.5,737.9,323.3z" style="fill: #000; stroke: #000;"/>
    <path d="M699.6,372.4v-9.2h34.9c-3.1-3.4-5.5-7.4-7.1-11.9h8.4c0.8,2.4,2.3,5.1,4.5,7.9c2.3,2.8,4.8,4.8,7.7,5.9v7.5L699.6,372.4z" style="fill: #000; stroke: #000;"/>
    <path d="M745.6,406.2c-0.5,4.7-2.7,8.1-6.3,10.3c-4.3,2.6-11,3.4-20.1,2.3c-9-1-15.4-3.4-19-7.1c-3-3-4.1-6.9-3.6-11.4 c0.5-4.7,2.8-8.2,6.8-10.6c3.9-2.4,10.5-3.1,19.7-2c9,1,15.4,3.4,18.9,7.1C745,397.8,746.2,401.6,745.6,406.2z M738,405.4 c0.1-1.1-0.1-2.2-0.7-3.1c-0.6-0.9-1.7-1.7-3.5-2.5c-2.3-0.9-6.3-1.7-11.9-2.4c-5.6-0.7-9.5-0.8-11.7-0.5s-3.6,0.8-4.5,1.6 c-0.8,0.7-1.2,1.7-1.4,2.8c-0.1,1.1,0.1,2.2,0.7,3.1c0.6,0.9,1.7,1.7,3.5,2.5c2.3,0.9,6.3,1.6,11.8,2.4s9.5,0.8,11.7,0.5 s3.6-0.8,4.5-1.6S737.9,406.4,738,405.4z" style="fill: #000; stroke: #000;"/>
    <path d="M689.2,443.8l2.2-9l34,8.2c-2.3-4-3.6-8.5-3.9-13.3l8.2,2c0.2,2.5,1,5.4,2.5,8.7c1.4,3.3,3.5,5.9,6.2,7.5l-1.7,7.3 L689.2,443.8z" style="fill: #000; stroke: #000;"/>
    <path d="M726,487.6c-1.6,4.4-4.5,7.3-8.5,8.5c-4.8,1.5-11.5,0.7-20-2.5s-14.2-7-16.8-11.3c-2.2-3.6-2.5-7.6-0.8-11.9 c1.6-4.4,4.7-7.4,9-8.7c4.4-1.4,10.9-0.5,19.6,2.7c8.5,3.2,14.2,7,16.7,11.3C727.4,479.3,727.6,483.2,726,487.6z M718.7,484.9 c0.4-1,0.4-2.1,0-3.2c-0.3-1-1.3-2.2-2.9-3.2c-2-1.4-5.7-3.1-11-5.1s-9-3.1-11.2-3.3c-2.2-0.2-3.7,0-4.7,0.5 c-0.9,0.5-1.6,1.3-2.1,2.4c-0.4,1-0.4,2.1,0,3.2c0.3,1,1.3,2.2,2.9,3.2c2,1.4,5.6,3.1,11,5.1c5.3,2,9,3.1,11.2,3.3s3.7,0,4.8-0.5 C717.7,486.7,718.4,486,718.7,484.9z" style="fill: #000; stroke: #000;"/>
    <path d="M662.2,510.8l4.3-8.2l31.1,16c-1.2-4.5-1.5-9-0.7-13.9l7.5,3.8c-0.4,2.5-0.3,5.5,0.4,9s2.1,6.5,4.1,8.7l-3.4,6.7 L662.2,510.8z" style="fill: #000; stroke: #000;"/>
    <path d="M687.6,561.9c-2.6,3.8-6.1,6.1-10.3,6.4c-5,0.4-11.3-2-18.9-7.1c-7.6-5.1-12.1-10.1-13.8-15c-1.2-4-0.6-8,2.1-11.8 c2.6-3.9,6.3-6.1,10.9-6.5c4.6-0.3,10.8,2.1,18.5,7.3c7.6,5.1,12,10.1,13.7,15C691,554.1,690.4,558.1,687.6,561.9z M681.3,557.7 c0.6-0.9,0.9-2,0.8-3.1c-0.1-1.1-0.8-2.4-2.1-3.8c-1.6-1.8-4.8-4.4-9.4-7.6c-4.7-3.2-8.1-5.1-10.2-5.9c-2.1-0.7-3.6-0.9-4.7-0.6 c-1,0.3-1.8,0.9-2.5,1.8c-0.6,0.9-0.9,2-0.8,3.1c0.1,1.1,0.8,2.4,2.1,3.8c1.5,1.8,4.8,4.4,9.4,7.6c4.7,3.2,8.1,5.1,10.2,5.9 c2.1,0.7,3.6,0.9,4.8,0.6C679.8,559.3,680.6,558.7,681.3,557.7z" style="fill: #000; stroke: #000;"/>
    <path d="M620.2,569.6l6.1-7l26.4,22.9c-0.2-4.7,0.6-9.1,2.5-13.7l6.4,5.5c-0.9,2.4-1.5,5.3-1.7,8.9c-0.2,3.6,0.5,6.8,2.1,9.4 l-4.8,5.7L620.2,569.6z" style="fill: #000; stroke: #000;"/>
    <path d="M633,625.4c-3.4,3.1-7.3,4.4-11.5,3.6c-5-0.8-10.6-4.6-16.7-11.4c-6.2-6.8-9.4-12.6-9.8-17.8c-0.3-4.1,1.3-7.9,4.8-11 c3.4-3.1,7.5-4.4,12-3.6c4.5,0.8,10,4.6,16.2,11.4c6.2,6.8,9.3,12.6,9.8,17.8C637.9,618.5,636.4,622.3,633,625.4z M627.8,619.6 c0.8-0.7,1.3-1.6,1.4-2.8c0.2-1.1-0.2-2.5-1-4.3c-1.1-2.2-3.6-5.4-7.5-9.5c-3.8-4.1-6.7-6.9-8.5-8.1c-1.8-1.1-3.3-1.7-4.5-1.6 c-1.1,0.1-2.1,0.5-2.9,1.2c-0.8,0.7-1.3,1.6-1.4,2.8c-0.2,1.1,0.2,2.5,1,4.3c1.1,2.2,3.6,5.4,7.4,9.5c3.8,4.1,6.7,6.9,8.5,8.1 c1.8,1.1,3.3,1.7,4.5,1.6C626,620.9,626.9,620.5,627.8,619.6z" style="fill: #000; stroke: #000;"/>
    <path d="M565.6,616.9l7.6-5.4l20.2,28.4c0.9-4.6,2.8-8.7,5.7-12.6l4.9,6.9c-1.5,2.1-2.8,4.8-3.8,8.2s-1.1,6.7-0.3,9.7l-6.2,4.4 L565.6,616.9z" style="fill: #000; stroke: #000;"/>
    <path d="M564.7,674c-4.1,2.3-8.1,2.5-12,0.8c-4.7-2-9.1-7-13.7-15.1c-4.4-8-6.2-14.6-5.3-19.6c0.7-4.1,3.1-7.4,7.3-9.5 c4.1-2.3,8.3-2.5,12.5-0.7c4.3,1.7,8.6,6.8,13.1,15c4.4,8,6.2,14.6,5.2,19.5C571.2,668.6,568.8,671.8,564.7,674z M561,667.3 c0.9-0.5,1.6-1.3,2.1-2.4c0.4-1,0.4-2.5,0-4.4c-0.6-2.4-2.3-6.2-5-11.1c-2.7-5-4.8-8.3-6.4-9.9c-1.5-1.5-2.8-2.5-3.9-2.7 c-1.1-0.2-2.2,0-3.1,0.5c-0.9,0.5-1.6,1.3-2.1,2.4s-0.4,2.5,0,4.4c0.6,2.4,2.2,6.1,5,11c2.7,5,4.8,8.3,6.4,9.9s2.8,2.5,3.9,2.7 C559.1,667.9,560,667.9,561,667.3z" style="fill: #000; stroke: #000;"/>
    <path d="M501.3,649.8l8.6-3.4l13,32.4c2-4.1,4.8-7.9,8.5-11l3.1,7.8c-2,1.6-3.8,3.9-5.6,7.1c-1.7,3.1-2.7,6.3-2.6,9.3l-7,2.8 L501.3,649.8z" style="fill: #000; stroke: #000;"/>
    <path d="M487.1,705.2c-4.6,1.2-8.5,0.5-11.9-2c-4-3-7.3-8.9-9.7-17.8c-2.4-8.8-2.6-15.6-0.5-20.2c1.6-3.8,4.8-6.5,9.2-7.6 c4.6-1.2,8.6-0.4,12.3,2.3c3.7,2.7,6.8,8.6,9.2,17.6c2.4,8.8,2.5,15.5,0.5,20.2C494.7,701.4,491.6,703.9,487.1,705.2z M485.1,697.7 c1-0.3,2-0.9,2.6-1.7s1-2.3,0.9-4.3c0-2.5-0.7-6.5-2.2-11.9c-1.4-5.4-2.8-9.1-3.8-11.1c-1.1-1.8-2.2-3.1-3.2-3.5s-2.1-0.5-3.1-0.2 s-2,0.9-2.6,1.7s-1,2.3-0.9,4.3c0,2.5,0.7,6.5,2.2,11.9c1.4,5.4,2.8,9.1,3.8,11.1c1.1,1.8,2.2,3.1,3.2,3.5 C482.9,697.9,484,698,485.1,697.7z" style="fill: #000; stroke: #000;"/>
    <path d="M431.1,666.8l9.1-1.3l5,34.6c2.9-3.6,6.6-6.6,10.8-8.6l1.2,8.3c-2.3,1.1-4.7,3-7.2,5.6c-2.5,2.7-4,5.4-4.7,8.5l-7.5,1 L431.1,666.8z" style="fill: #000; stroke: #000;"/>
  </g>
</svg>