<?xml version="1.0" encoding="UTF-8"?><svg xmlns="http://www.w3.org/2000/svg" xmlns:xlink="http://www.w3.org/1999/xlink" width="75" zoomAndPan="magnify" viewBox="0 0 75 74.999997" height="74.999997" preserveAspectRatio="xMidYMid meet" version="1.0"><g data-bx-workspace="master" xmlns="http://www.w3.org/2000/svg" xmlns:bx="https://boxy-svg.com" width="75" zoomAndPan="magnify" viewBox="0 0 75 74.999997" height="74.999997" preserveAspectRatio="xMidYMid meet" version="1.0"><defs><linearGradient gradientUnits="userSpaceOnUse" x1="37.467" y1="0" x2="37.467" y2="74.934" id="gradient-0" gradientTransform="matrix(0.706407, -0.707806, 0.982055, 0.980114, -25.565351, 27.321742)"><stop offset="0" style="stop-color: rgb(246, 89, 0);"></stop><stop offset="1" style="stop-color: rgb(255, 2, 108);"></stop></linearGradient></defs><path d="M 0 8.402344 C 0 20.867188 8.550781 37.59375 23.253906 48.824219 L 23.253906 58.136719 C 23.253906 64.867188 28.277344 68.722656 33.589844 71.378906 L 40.699219 74.933594 L 40.699219 58.136719 L 58.140625 40.695312 L 74.933594 40.695312 L 71.378906 33.585938 C 68.722656 28.277344 64.867188 23.253906 58.140625 23.253906 L 48.828125 23.253906 C 37.59375 8.550781 20.867188 0 8.402344 0 L 0 0 Z M 17.441406 23.253906 C 17.441406 20.042969 20.042969 17.441406 23.253906 17.441406 C 26.46875 17.441406 29.070312 20.042969 29.070312 23.253906 C 29.070312 26.464844 26.46875 29.066406 23.253906 29.066406 C 20.042969 29.066406 17.441406 26.464844 17.441406 23.253906 Z M 52.324219 61.042969 L 55.234375 63.953125 C 59.429688 68.152344 69.765625 69.765625 69.765625 69.765625 C 69.765625 69.765625 68.617188 59.894531 63.953125 55.230469 L 61.046875 52.324219 Z M 52.324219 61.042969 " fill-opacity="1" fill-rule="nonzero" style="fill: url(&quot;#gradient-0&quot;);"></path></g></svg>
