<?xml version="1.0" encoding="UTF-8"?><svg xmlns="http://www.w3.org/2000/svg" xmlns:xlink="http://www.w3.org/1999/xlink" width="375" zoomAndPan="magnify" viewBox="0 0 375 374.999991" height="374.999991" preserveAspectRatio="xMidYMid meet" version="1.0"><path fill="#636363" d="M 187.5 375 C 290.890625 375 375 290.890625 375 187.5 C 375 84.109375 290.890625 0 187.5 0 C 84.109375 0 0 84.109375 0 187.5 C 0 290.890625 84.109375 375 187.5 375 Z M 187.5 23.4375 C 277.96875 23.4375 351.5625 97.03125 351.5625 187.5 C 351.5625 277.96875 277.96875 351.5625 187.5 351.5625 C 97.03125 351.5625 23.4375 277.96875 23.4375 187.5 C 23.4375 97.03125 97.03125 23.4375 187.5 23.4375 Z M 187.5 23.4375 " fill-opacity="1" fill-rule="nonzero"/><path fill="#636363" d="M 123.375 221.171875 L 147.875 210.53125 L 141 217.421875 C 138.796875 219.625 137.5625 222.609375 137.5625 225.703125 L 137.5625 271.5625 C 137.5625 282.0625 150.25 287.15625 157.5625 279.84375 L 182.15625 255.25 L 235.75 282.046875 C 242.6875 285.515625 251.078125 281.40625 252.515625 273.65625 L 283.09375 105.515625 C 284.703125 96.46875 275.796875 89.15625 267.28125 92.5 L 68.59375 170.265625 C 59.6875 173.734375 58.5 185.921875 66.5625 191.0625 L 112.40625 220.3125 C 115.6875 222.40625 119.828125 222.734375 123.375 221.171875 Z M 256.28125 122 L 232.265625 254.109375 L 185.078125 230.53125 C 180.515625 228.25 175.078125 229.203125 171.5625 232.734375 L 161 243.296875 L 161 230.59375 L 207.984375 183.609375 C 217.09375 174.5 206.84375 159.46875 195.03125 164.578125 L 119.765625 197.234375 L 98.609375 183.734375 Z M 256.28125 122 " fill-opacity="1" fill-rule="nonzero"/></svg>